<svg width="1200" height="800" viewBox="0 0 1200 800" fill="none" xmlns="http://www.w3.org/2000/svg">
<g id="Ground Floor">
<rect width="1200" height="800" fill="white"/>
<g id="Spaces">
<g id="E1">
<rect id="Entrance" x="226" y="319" width="219" height="129" fill="#D9D9D9"/>
<path id="title" d="M311.057 388V379.273H316.324V380.21H312.114V383.159H316.051V384.097H312.114V387.062H316.392V388H311.057ZM319.098 384.062V388H318.092V381.455H319.064V382.477H319.149C319.303 382.145 319.536 381.878 319.848 381.676C320.161 381.472 320.564 381.369 321.058 381.369C321.501 381.369 321.889 381.46 322.222 381.642C322.554 381.821 322.813 382.094 322.997 382.46C323.182 382.824 323.274 383.284 323.274 383.841V388H322.268V383.909C322.268 383.395 322.135 382.994 321.868 382.707C321.601 382.418 321.234 382.273 320.768 382.273C320.447 382.273 320.161 382.342 319.908 382.482C319.658 382.621 319.46 382.824 319.315 383.091C319.17 383.358 319.098 383.682 319.098 384.062ZM327.958 381.455V382.307H324.566V381.455H327.958ZM325.555 379.886H326.561V386.125C326.561 386.409 326.602 386.622 326.684 386.764C326.77 386.903 326.877 386.997 327.008 387.045C327.142 387.091 327.282 387.114 327.43 387.114C327.541 387.114 327.632 387.108 327.703 387.097C327.774 387.082 327.831 387.071 327.873 387.062L328.078 387.966C328.01 387.991 327.914 388.017 327.792 388.043C327.67 388.071 327.515 388.085 327.328 388.085C327.044 388.085 326.765 388.024 326.493 387.902C326.223 387.78 325.998 387.594 325.819 387.344C325.643 387.094 325.555 386.778 325.555 386.398V379.886ZM329.471 388V381.455H330.443V382.443H330.511C330.63 382.119 330.846 381.857 331.159 381.655C331.471 381.453 331.824 381.352 332.216 381.352C332.289 381.352 332.382 381.354 332.493 381.357C332.603 381.359 332.687 381.364 332.744 381.369V382.392C332.71 382.384 332.632 382.371 332.51 382.354C332.39 382.334 332.264 382.324 332.13 382.324C331.812 382.324 331.528 382.391 331.278 382.524C331.031 382.655 330.835 382.837 330.69 383.07C330.548 383.3 330.477 383.562 330.477 383.858V388H329.471ZM335.862 388.153C335.447 388.153 335.071 388.075 334.733 387.919C334.395 387.76 334.126 387.531 333.928 387.233C333.729 386.932 333.629 386.568 333.629 386.142C333.629 385.767 333.703 385.463 333.851 385.23C333.999 384.994 334.196 384.81 334.443 384.676C334.69 384.543 334.963 384.443 335.261 384.378C335.563 384.31 335.865 384.256 336.169 384.216C336.567 384.165 336.889 384.126 337.136 384.101C337.386 384.072 337.568 384.026 337.682 383.96C337.798 383.895 337.857 383.781 337.857 383.619V383.585C337.857 383.165 337.741 382.838 337.511 382.605C337.284 382.372 336.939 382.256 336.476 382.256C335.996 382.256 335.619 382.361 335.347 382.571C335.074 382.781 334.882 383.006 334.771 383.244L333.817 382.903C333.987 382.506 334.214 382.196 334.499 381.974C334.786 381.75 335.098 381.594 335.436 381.506C335.777 381.415 336.112 381.369 336.442 381.369C336.652 381.369 336.893 381.395 337.166 381.446C337.442 381.494 337.707 381.595 337.963 381.749C338.222 381.902 338.436 382.134 338.607 382.443C338.777 382.753 338.862 383.168 338.862 383.688V388H337.857V387.114H337.805C337.737 387.256 337.624 387.408 337.464 387.57C337.305 387.732 337.094 387.869 336.83 387.983C336.565 388.097 336.243 388.153 335.862 388.153ZM336.016 387.25C336.413 387.25 336.749 387.172 337.021 387.016C337.297 386.859 337.504 386.658 337.643 386.411C337.786 386.163 337.857 385.903 337.857 385.631V384.71C337.814 384.761 337.72 384.808 337.575 384.851C337.433 384.891 337.268 384.926 337.081 384.957C336.896 384.986 336.716 385.011 336.54 385.034C336.366 385.054 336.226 385.071 336.118 385.085C335.857 385.119 335.612 385.175 335.385 385.251C335.161 385.325 334.979 385.437 334.839 385.588C334.703 385.736 334.635 385.937 334.635 386.193C334.635 386.543 334.764 386.807 335.023 386.986C335.284 387.162 335.615 387.25 336.016 387.25ZM341.703 384.062V388H340.698V381.455H341.669V382.477H341.755C341.908 382.145 342.141 381.878 342.453 381.676C342.766 381.472 343.169 381.369 343.664 381.369C344.107 381.369 344.495 381.46 344.827 381.642C345.159 381.821 345.418 382.094 345.603 382.46C345.787 382.824 345.88 383.284 345.88 383.841V388H344.874V383.909C344.874 383.395 344.74 382.994 344.473 382.707C344.206 382.418 343.84 382.273 343.374 382.273C343.053 382.273 342.766 382.342 342.513 382.482C342.263 382.621 342.066 382.824 341.921 383.091C341.776 383.358 341.703 383.682 341.703 384.062ZM350.376 388.136C349.763 388.136 349.234 387.991 348.791 387.702C348.348 387.412 348.007 387.013 347.768 386.504C347.53 385.996 347.411 385.415 347.411 384.761C347.411 384.097 347.533 383.51 347.777 383.001C348.024 382.49 348.368 382.091 348.808 381.804C349.251 381.514 349.768 381.369 350.359 381.369C350.82 381.369 351.234 381.455 351.604 381.625C351.973 381.795 352.276 382.034 352.511 382.341C352.747 382.648 352.893 383.006 352.95 383.415H351.945C351.868 383.116 351.697 382.852 351.433 382.622C351.172 382.389 350.82 382.273 350.376 382.273C349.984 382.273 349.641 382.375 349.345 382.58C349.053 382.781 348.824 383.067 348.659 383.436C348.497 383.803 348.416 384.233 348.416 384.727C348.416 385.233 348.496 385.673 348.655 386.048C348.817 386.423 349.044 386.714 349.337 386.922C349.632 387.129 349.979 387.233 350.376 387.233C350.638 387.233 350.875 387.188 351.088 387.097C351.301 387.006 351.482 386.875 351.629 386.705C351.777 386.534 351.882 386.33 351.945 386.091H352.95C352.893 386.477 352.753 386.825 352.528 387.135C352.307 387.442 352.013 387.686 351.646 387.868C351.283 388.047 350.859 388.136 350.376 388.136ZM357.165 388.136C356.534 388.136 355.99 387.997 355.533 387.719C355.078 387.438 354.727 387.045 354.48 386.543C354.236 386.037 354.114 385.449 354.114 384.778C354.114 384.108 354.236 383.517 354.48 383.006C354.727 382.491 355.071 382.091 355.511 381.804C355.955 381.514 356.472 381.369 357.062 381.369C357.403 381.369 357.74 381.426 358.072 381.54C358.405 381.653 358.707 381.838 358.98 382.094C359.253 382.347 359.47 382.682 359.632 383.099C359.794 383.517 359.875 384.031 359.875 384.642V385.068H354.83V384.199H358.852C358.852 383.83 358.778 383.5 358.631 383.21C358.486 382.92 358.278 382.692 358.009 382.524C357.741 382.357 357.426 382.273 357.062 382.273C356.662 382.273 356.315 382.372 356.023 382.571C355.733 382.767 355.51 383.023 355.354 383.338C355.197 383.653 355.119 383.991 355.119 384.352V384.932C355.119 385.426 355.205 385.845 355.375 386.189C355.548 386.53 355.788 386.79 356.095 386.969C356.402 387.145 356.759 387.233 357.165 387.233C357.429 387.233 357.668 387.196 357.881 387.122C358.097 387.045 358.283 386.932 358.439 386.781C358.595 386.628 358.716 386.437 358.801 386.21L359.773 386.483C359.67 386.812 359.499 387.102 359.257 387.352C359.016 387.599 358.717 387.793 358.362 387.932C358.007 388.068 357.608 388.136 357.165 388.136Z" fill="black"/>
</g>
<g id="R1">
<rect id="Room 1" x="792" y="151" width="182" height="100" fill="#D9D9D9"/>
<path id="title_2" d="M861.057 205V196.273H864.006C864.688 196.273 865.247 196.389 865.685 196.622C866.122 196.852 866.446 197.169 866.656 197.572C866.866 197.976 866.972 198.435 866.972 198.949C866.972 199.463 866.866 199.919 866.656 200.317C866.446 200.714 866.124 201.027 865.689 201.254C865.254 201.479 864.699 201.591 864.023 201.591H861.636V200.636H863.989C864.455 200.636 864.83 200.568 865.114 200.432C865.401 200.295 865.608 200.102 865.736 199.852C865.866 199.599 865.932 199.298 865.932 198.949C865.932 198.599 865.866 198.294 865.736 198.033C865.605 197.771 865.396 197.57 865.109 197.428C864.822 197.283 864.443 197.21 863.972 197.21H862.114V205H861.057ZM865.165 201.08L867.312 205H866.085L863.972 201.08H865.165ZM871.185 205.136C870.594 205.136 870.076 204.996 869.63 204.714C869.186 204.433 868.84 204.04 868.59 203.534C868.343 203.028 868.219 202.437 868.219 201.761C868.219 201.08 868.343 200.484 868.59 199.976C868.84 199.467 869.186 199.072 869.63 198.791C870.076 198.51 870.594 198.369 871.185 198.369C871.776 198.369 872.293 198.51 872.736 198.791C873.182 199.072 873.529 199.467 873.776 199.976C874.026 200.484 874.151 201.08 874.151 201.761C874.151 202.437 874.026 203.028 873.776 203.534C873.529 204.04 873.182 204.433 872.736 204.714C872.293 204.996 871.776 205.136 871.185 205.136ZM871.185 204.233C871.634 204.233 872.003 204.118 872.293 203.888C872.583 203.658 872.797 203.355 872.936 202.98C873.076 202.605 873.145 202.199 873.145 201.761C873.145 201.324 873.076 200.916 872.936 200.538C872.797 200.161 872.583 199.855 872.293 199.622C872.003 199.389 871.634 199.273 871.185 199.273C870.736 199.273 870.367 199.389 870.077 199.622C869.787 199.855 869.573 200.161 869.434 200.538C869.294 200.916 869.225 201.324 869.225 201.761C869.225 202.199 869.294 202.605 869.434 202.98C869.573 203.355 869.787 203.658 870.077 203.888C870.367 204.118 870.736 204.233 871.185 204.233ZM878.345 205.136C877.754 205.136 877.236 204.996 876.79 204.714C876.347 204.433 876 204.04 875.75 203.534C875.503 203.028 875.379 202.437 875.379 201.761C875.379 201.08 875.503 200.484 875.75 199.976C876 199.467 876.347 199.072 876.79 198.791C877.236 198.51 877.754 198.369 878.345 198.369C878.936 198.369 879.453 198.51 879.896 198.791C880.342 199.072 880.689 199.467 880.936 199.976C881.186 200.484 881.311 201.08 881.311 201.761C881.311 202.437 881.186 203.028 880.936 203.534C880.689 204.04 880.342 204.433 879.896 204.714C879.453 204.996 878.936 205.136 878.345 205.136ZM878.345 204.233C878.794 204.233 879.163 204.118 879.453 203.888C879.743 203.658 879.957 203.355 880.097 202.98C880.236 202.605 880.305 202.199 880.305 201.761C880.305 201.324 880.236 200.916 880.097 200.538C879.957 200.161 879.743 199.855 879.453 199.622C879.163 199.389 878.794 199.273 878.345 199.273C877.896 199.273 877.527 199.389 877.237 199.622C876.947 199.855 876.733 200.161 876.594 200.538C876.455 200.916 876.385 201.324 876.385 201.761C876.385 202.199 876.455 202.605 876.594 202.98C876.733 203.355 876.947 203.658 877.237 203.888C877.527 204.118 877.896 204.233 878.345 204.233ZM882.846 205V198.455H883.818V199.477H883.903C884.039 199.128 884.26 198.857 884.564 198.663C884.868 198.467 885.233 198.369 885.659 198.369C886.091 198.369 886.45 198.467 886.737 198.663C887.027 198.857 887.252 199.128 887.414 199.477H887.483C887.65 199.139 887.902 198.871 888.237 198.672C888.572 198.47 888.974 198.369 889.443 198.369C890.028 198.369 890.507 198.553 890.879 198.919C891.251 199.283 891.437 199.849 891.437 200.619V205H890.431V200.619C890.431 200.136 890.299 199.791 890.035 199.584C889.771 199.376 889.46 199.273 889.102 199.273C888.642 199.273 888.285 199.412 888.032 199.69C887.779 199.966 887.653 200.315 887.653 200.739V205H886.63V200.517C886.63 200.145 886.51 199.845 886.268 199.618C886.027 199.388 885.716 199.273 885.335 199.273C885.074 199.273 884.829 199.342 884.602 199.482C884.377 199.621 884.196 199.814 884.056 200.061C883.92 200.305 883.852 200.588 883.852 200.909V205H882.846ZM899.702 196.273V205H898.645V197.381H898.594L896.463 198.795V197.722L898.645 196.273H899.702Z" fill="black"/>
</g>
<g id="R2">
<rect id="Room 2" x="792" y="549" width="182" height="100" fill="#D9D9D9"/>
<path id="Room 2_2" d="M862.057 599V590.273H865.006C865.688 590.273 866.247 590.389 866.685 590.622C867.122 590.852 867.446 591.169 867.656 591.572C867.866 591.976 867.972 592.435 867.972 592.949C867.972 593.463 867.866 593.919 867.656 594.317C867.446 594.714 867.124 595.027 866.689 595.254C866.254 595.479 865.699 595.591 865.023 595.591H862.636V594.636H864.989C865.455 594.636 865.83 594.568 866.114 594.432C866.401 594.295 866.608 594.102 866.736 593.852C866.866 593.599 866.932 593.298 866.932 592.949C866.932 592.599 866.866 592.294 866.736 592.033C866.605 591.771 866.396 591.57 866.109 591.428C865.822 591.283 865.443 591.21 864.972 591.21H863.114V599H862.057ZM866.165 595.08L868.312 599H867.085L864.972 595.08H866.165ZM872.185 599.136C871.594 599.136 871.076 598.996 870.63 598.714C870.186 598.433 869.84 598.04 869.59 597.534C869.343 597.028 869.219 596.437 869.219 595.761C869.219 595.08 869.343 594.484 869.59 593.976C869.84 593.467 870.186 593.072 870.63 592.791C871.076 592.51 871.594 592.369 872.185 592.369C872.776 592.369 873.293 592.51 873.736 592.791C874.182 593.072 874.529 593.467 874.776 593.976C875.026 594.484 875.151 595.08 875.151 595.761C875.151 596.437 875.026 597.028 874.776 597.534C874.529 598.04 874.182 598.433 873.736 598.714C873.293 598.996 872.776 599.136 872.185 599.136ZM872.185 598.233C872.634 598.233 873.003 598.118 873.293 597.888C873.583 597.658 873.797 597.355 873.936 596.98C874.076 596.605 874.145 596.199 874.145 595.761C874.145 595.324 874.076 594.916 873.936 594.538C873.797 594.161 873.583 593.855 873.293 593.622C873.003 593.389 872.634 593.273 872.185 593.273C871.736 593.273 871.367 593.389 871.077 593.622C870.787 593.855 870.573 594.161 870.434 594.538C870.294 594.916 870.225 595.324 870.225 595.761C870.225 596.199 870.294 596.605 870.434 596.98C870.573 597.355 870.787 597.658 871.077 597.888C871.367 598.118 871.736 598.233 872.185 598.233ZM879.345 599.136C878.754 599.136 878.236 598.996 877.79 598.714C877.347 598.433 877 598.04 876.75 597.534C876.503 597.028 876.379 596.437 876.379 595.761C876.379 595.08 876.503 594.484 876.75 593.976C877 593.467 877.347 593.072 877.79 592.791C878.236 592.51 878.754 592.369 879.345 592.369C879.936 592.369 880.453 592.51 880.896 592.791C881.342 593.072 881.689 593.467 881.936 593.976C882.186 594.484 882.311 595.08 882.311 595.761C882.311 596.437 882.186 597.028 881.936 597.534C881.689 598.04 881.342 598.433 880.896 598.714C880.453 598.996 879.936 599.136 879.345 599.136ZM879.345 598.233C879.794 598.233 880.163 598.118 880.453 597.888C880.743 597.658 880.957 597.355 881.097 596.98C881.236 596.605 881.305 596.199 881.305 595.761C881.305 595.324 881.236 594.916 881.097 594.538C880.957 594.161 880.743 593.855 880.453 593.622C880.163 593.389 879.794 593.273 879.345 593.273C878.896 593.273 878.527 593.389 878.237 593.622C877.947 593.855 877.733 594.161 877.594 594.538C877.455 594.916 877.385 595.324 877.385 595.761C877.385 596.199 877.455 596.605 877.594 596.98C877.733 597.355 877.947 597.658 878.237 597.888C878.527 598.118 878.896 598.233 879.345 598.233ZM883.846 599V592.455H884.818V593.477H884.903C885.039 593.128 885.26 592.857 885.564 592.663C885.868 592.467 886.233 592.369 886.659 592.369C887.091 592.369 887.45 592.467 887.737 592.663C888.027 592.857 888.252 593.128 888.414 593.477H888.483C888.65 593.139 888.902 592.871 889.237 592.672C889.572 592.47 889.974 592.369 890.443 592.369C891.028 592.369 891.507 592.553 891.879 592.919C892.251 593.283 892.437 593.849 892.437 594.619V599H891.431V594.619C891.431 594.136 891.299 593.791 891.035 593.584C890.771 593.376 890.46 593.273 890.102 593.273C889.642 593.273 889.285 593.412 889.032 593.69C888.779 593.966 888.653 594.315 888.653 594.739V599H887.63V594.517C887.63 594.145 887.51 593.845 887.268 593.618C887.027 593.388 886.716 593.273 886.335 593.273C886.074 593.273 885.829 593.342 885.602 593.482C885.377 593.621 885.196 593.814 885.056 594.061C884.92 594.305 884.852 594.588 884.852 594.909V599H883.846ZM897.634 599V598.233L900.515 595.08C900.853 594.71 901.131 594.389 901.35 594.116C901.569 593.841 901.73 593.582 901.836 593.341C901.944 593.097 901.998 592.841 901.998 592.574C901.998 592.267 901.924 592.001 901.776 591.777C901.631 591.553 901.432 591.379 901.179 591.257C900.926 591.135 900.642 591.074 900.327 591.074C899.992 591.074 899.699 591.143 899.449 591.283C899.202 591.419 899.01 591.611 898.874 591.858C898.74 592.105 898.674 592.395 898.674 592.727H897.668C897.668 592.216 897.786 591.767 898.022 591.381C898.257 590.994 898.578 590.693 898.985 590.477C899.394 590.261 899.853 590.153 900.361 590.153C900.873 590.153 901.326 590.261 901.721 590.477C902.115 590.693 902.425 590.984 902.65 591.351C902.874 591.717 902.986 592.125 902.986 592.574C902.986 592.895 902.928 593.209 902.811 593.516C902.698 593.82 902.499 594.159 902.215 594.534C901.934 594.906 901.543 595.361 901.043 595.898L899.083 597.994V598.062H903.14V599H897.634Z" fill="black"/>
</g>
</g>
<g id="Walkable">
<line id="Line 1" x1="463.999" y1="384.5" x2="882.999" y2="383.5" stroke="black"/>
<line id="Line 2" x1="881.5" y1="255.992" x2="883.5" y2="383.992" stroke="black"/>
<line id="Line 3" x1="883.5" y1="382" x2="883.5" y2="549" stroke="black"/>
</g>
<g id="Intersection">
<circle id="Entrance_2" cx="452.5" cy="383.5" r="7.5" fill="#FD2222"/>
<circle id="Ellipse 1" cx="882.5" cy="381.5" r="7.5" fill="#FD2222"/>
<circle id="Room 2_3" cx="882.5" cy="541.5" r="7.5" fill="#FD2222"/>
<circle id="Room 1_2" cx="882.5" cy="255.5" r="7.5" fill="#FD2222"/>
</g>
</g>
</svg>
