<svg width="1200" height="800" viewBox="0 0 1200 800" fill="none" xmlns="http://www.w3.org/2000/svg">
<g id="GROUND">
<rect width="1200" height="800" fill="white"/>
<g id="Space">
<g id="R1">
<rect id="Room1" x="119" y="332" width="144" height="79" fill="#D9D9D9"/>
<text id="R1_2" fill="black" style="white-space: pre" xml:space="preserve" font-family="Inter" font-size="12" letter-spacing="0em"><tspan x="188" y="375.864">R1</tspan></text>
</g>
<g id="E1">
<rect id="Entrance" x="130" y="689" width="144" height="79" fill="#D9D9D9"/>
<text id="E1_2" fill="black" style="white-space: pre" xml:space="preserve" font-family="Inter" font-size="12" letter-spacing="0em"><tspan x="177" y="732.864">Entrance</tspan></text>
</g>
<g id="R2">
<rect id="Room2" x="263" y="332" width="144" height="79" fill="#D9D9D9"/>
<text id="R2_2" fill="black" style="white-space: pre" xml:space="preserve" font-family="Inter" font-size="12" letter-spacing="0em"><tspan x="332" y="375.864">R2</tspan></text>
</g>
<g id="R3">
<rect id="Room3" x="407" y="332" width="144" height="79" fill="#D9D9D9"/>
<text id="R2_3" fill="black" style="white-space: pre" xml:space="preserve" font-family="Inter" font-size="12" letter-spacing="0em"><tspan x="476" y="375.864">R3</tspan></text>
</g>
<g id="R4">
<rect id="Room4" x="938" y="112" width="144" height="79" fill="#D9D9D9"/>
<text id="R4_2" fill="black" style="white-space: pre" xml:space="preserve" font-family="Inter" font-size="12" letter-spacing="0em"><tspan x="1007" y="155.864">R4</tspan></text>
</g>
<g id="R7">
<rect id="Room7" x="556" y="33" width="144" height="79" fill="#D9D9D9"/>
<text id="R7_2" fill="black" style="white-space: pre" xml:space="preserve" font-family="Inter" font-size="12" letter-spacing="0em"><tspan x="625" y="76.8636">R4</tspan></text>
</g>
<g id="R8">
<rect id="Room8" x="556" y="33" width="144" height="79" fill="#D9D9D9"/>
<text id="R8_2" fill="black" style="white-space: pre" xml:space="preserve" font-family="Inter" font-size="12" letter-spacing="0em"><tspan x="625" y="76.8636">R8</tspan></text>
</g>
<g id="R9">
<rect id="Room9" x="354" y="33" width="144" height="79" fill="#D9D9D9"/>
<text id="R9_2" fill="black" style="white-space: pre" xml:space="preserve" font-family="Inter" font-size="12" letter-spacing="0em"><tspan x="423" y="76.8636">R9</tspan></text>
</g>
<g id="R10">
<rect id="Room10" x="164" y="33" width="144" height="79" fill="#D9D9D9"/>
<text id="R10_2" fill="black" style="white-space: pre" xml:space="preserve" font-family="Inter" font-size="12" letter-spacing="0em"><tspan x="233" y="76.8636">R10</tspan></text>
</g>
<g id="R5">
<rect id="Room5" x="938" y="278" width="144" height="79" fill="#D9D9D9"/>
<text id="R5_2" fill="black" style="white-space: pre" xml:space="preserve" font-family="Inter" font-size="12" letter-spacing="0em"><tspan x="1007" y="321.864">R5</tspan></text>
</g>
<g id="R6">
<rect id="Room6" x="938" y="456" width="144" height="79" fill="#D9D9D9"/>
<text id="R6_2" fill="black" style="white-space: pre" xml:space="preserve" font-family="Inter" font-size="12" letter-spacing="0em"><tspan x="1007" y="499.864">R6</tspan></text>
</g>
</g>
<g id="Walkable">
<line id="Line 1" x1="203.5" y1="676" x2="203.5" y2="556" stroke="black"/>
<line id="Line 7" x1="203.5" y1="541" x2="203.5" y2="421" stroke="black"/>
<line id="Line 3" x1="347.5" y1="411" x2="347.5" y2="549" stroke="black"/>
<line id="Line 4" x1="484.5" y1="409" x2="484.5" y2="547" stroke="black"/>
<line id="Line 5" x1="839.5" y1="319.006" x2="837.5" y2="159.006" stroke="black"/>
<line id="Line 11" x1="838.5" y1="492.997" x2="839.5" y2="331.997" stroke="black"/>
<line id="Line 6" x1="837.995" y1="159.5" x2="937.995" y2="158.5" stroke="black"/>
<line id="Line 8" x1="212.996" y1="547.5" x2="337.996" y2="546.5" stroke="black"/>
<line id="Line 9" x1="358.996" y1="547.5" x2="483.996" y2="546.5" stroke="black"/>
<line id="Line 10" x1="493.002" y1="546.5" x2="827.001" y2="547.55" stroke="black"/>
<line id="Line 12" x1="849.006" y1="323.5" x2="931.006" y2="324.5" stroke="black"/>
<line id="Line 15" x1="833.997" y1="161.5" x2="639.997" y2="160.515" stroke="black"/>
<line id="Line 16" x1="632.5" y1="153" x2="632.5" y2="112" stroke="black"/>
<line id="Line 18" x1="422.5" y1="156" x2="422.5" y2="118" stroke="black"/>
<line id="Line 20" x1="240.5" y1="154" x2="240.5" y2="112" stroke="black"/>
<line id="Line 17" x1="629" y1="161.5" x2="432" y2="161.5" stroke="black"/>
<line id="Line 19" x1="419.003" y1="160.5" x2="241.003" y2="161.5" stroke="black"/>
<line id="Line 21" x1="839.5" y1="539" x2="839.5" y2="506" stroke="black"/>
<line id="Line 22" x1="846.012" y1="500.5" x2="931.012" y2="502.5" stroke="black"/>
</g>
<g id="Intersection">
<ellipse id="Ellipse 4" cx="347" cy="547" rx="7" ry="6" fill="#FC7276"/>
<ellipse id="Room9_2" cx="425" cy="112" rx="7" ry="6" fill="#FC7276"/>
<ellipse id="Room10_2" cx="241" cy="112" rx="7" ry="6" fill="#FC7276"/>
<ellipse id="Room8_2" cx="632" cy="112" rx="7" ry="6" fill="#FC7276"/>
<ellipse id="Room2_2" cx="347" cy="411" rx="7" ry="6" fill="#FC7276"/>
<ellipse id="Room3_2" cx="484" cy="411" rx="7" ry="6" fill="#FC7276"/>
<ellipse id="Ellipse 7" cx="484" cy="547" rx="7" ry="6" fill="#FC7276"/>
<ellipse id="Ellipse 8" cx="838" cy="546" rx="7" ry="6" fill="#FC7276"/>
<ellipse id="Ellipse 15" cx="838" cy="500" rx="7" ry="6" fill="#FC7276"/>
<ellipse id="Ellipse 10" cx="840" cy="325" rx="7" ry="6" fill="#FC7276"/>
<ellipse id="Room6_2" cx="938" cy="500" rx="7" ry="6" fill="#FC7276"/>
<ellipse id="Room4_2" cx="938" cy="159" rx="7" ry="6" fill="#FC7276"/>
<ellipse id="Ellipse 9" cx="840" cy="160" rx="7" ry="6" fill="#FC7276"/>
<ellipse id="Ellipse 1" cx="204" cy="549" rx="7" ry="6" fill="#FC7276"/>
<ellipse id="Room1_2" cx="204" cy="411" rx="7" ry="6" fill="#FC7276"/>
<ellipse id="Entrance_2" cx="204" cy="683" rx="7" ry="6" fill="#FC7276"/>
<ellipse id="Room5_2" cx="938" cy="324" rx="7" ry="6" fill="#FC7276"/>
<ellipse id="Ellipse 12" cx="633" cy="161" rx="7" ry="6" fill="#FC7276"/>
<ellipse id="Ellipse 13" cx="425" cy="161" rx="7" ry="6" fill="#FC7276"/>
<ellipse id="Ellipse 14" cx="241" cy="159" rx="7" ry="6" fill="#FC7276"/>
</g>
</g>
</svg>
