<svg width="1200" height="800" viewBox="0 0 1200 800" fill="none" xmlns="http://www.w3.org/2000/svg">
<g id="GROUND">
<rect width="1200" height="800" fill="white"/>
<g id="Room">
<g id="R1">
<rect id="Room1" x="19" y="336" width="144" height="79" fill="#D9D9D9"/>
<path id="R1_2" d="M89.0568 380V371.273H92.0057C92.6875 371.273 93.2472 371.389 93.6847 371.622C94.1222 371.852 94.446 372.169 94.6562 372.572C94.8665 372.976 94.9716 373.435 94.9716 373.949C94.9716 374.463 94.8665 374.919 94.6562 375.317C94.446 375.714 94.1236 376.027 93.6889 376.254C93.2543 376.479 92.6989 376.591 92.0227 376.591H89.6364V375.636H91.9886C92.4545 375.636 92.8295 375.568 93.1136 375.432C93.4006 375.295 93.608 375.102 93.7358 374.852C93.8665 374.599 93.9318 374.298 93.9318 373.949C93.9318 373.599 93.8665 373.294 93.7358 373.033C93.6051 372.771 93.3963 372.57 93.1094 372.428C92.8224 372.283 92.4432 372.21 91.9716 372.21H90.1136V380H89.0568ZM93.1648 376.08L95.3125 380H94.0852L91.9716 376.08H93.1648ZM99.6474 371.273V380H98.5906V372.381H98.5394L96.4087 373.795V372.722L98.5906 371.273H99.6474Z" fill="black"/>
</g>
<g id="E1">
<rect id="Entrance" x="30" y="693" width="144" height="79" fill="#D9D9D9"/>
<path id="E1_2" d="M78.0568 737V728.273H83.3239V729.21H79.1136V732.159H83.0511V733.097H79.1136V736.062H83.392V737H78.0568ZM86.098 733.062V737H85.0923V730.455H86.0639V731.477H86.1491C86.3026 731.145 86.5355 730.878 86.848 730.676C87.1605 730.472 87.5639 730.369 88.0582 730.369C88.5014 730.369 88.8892 730.46 89.2216 730.642C89.554 730.821 89.8125 731.094 89.9972 731.46C90.1818 731.824 90.2741 732.284 90.2741 732.841V737H89.2685V732.909C89.2685 732.395 89.1349 731.994 88.8679 731.707C88.6009 731.418 88.2344 731.273 87.7685 731.273C87.4474 731.273 87.1605 731.342 86.9077 731.482C86.6577 731.621 86.4602 731.824 86.3153 732.091C86.1705 732.358 86.098 732.682 86.098 733.062ZM94.9585 730.455V731.307H91.5664V730.455H94.9585ZM92.555 728.886H93.5607V735.125C93.5607 735.409 93.6019 735.622 93.6843 735.764C93.7695 735.903 93.8775 735.997 94.0082 736.045C94.1417 736.091 94.2823 736.114 94.43 736.114C94.5408 736.114 94.6317 736.108 94.7028 736.097C94.7738 736.082 94.8306 736.071 94.8732 736.062L95.0778 736.966C95.0096 736.991 94.9144 737.017 94.7923 737.043C94.6701 737.071 94.5153 737.085 94.3278 737.085C94.0437 737.085 93.7653 737.024 93.4925 736.902C93.2227 736.78 92.9982 736.594 92.8192 736.344C92.6431 736.094 92.555 735.778 92.555 735.398V728.886ZM96.4712 737V730.455H97.4428V731.443H97.511C97.6303 731.119 97.8462 730.857 98.1587 730.655C98.4712 730.453 98.8235 730.352 99.2156 730.352C99.2894 730.352 99.3817 730.354 99.4925 730.357C99.6033 730.359 99.6871 730.364 99.744 730.369V731.392C99.7099 731.384 99.6317 731.371 99.5096 731.354C99.3903 731.334 99.2638 731.324 99.1303 731.324C98.8121 731.324 98.5281 731.391 98.2781 731.524C98.0309 731.655 97.8349 731.837 97.69 732.07C97.5479 732.3 97.4769 732.562 97.4769 732.858V737H96.4712ZM102.862 737.153C102.447 737.153 102.071 737.075 101.733 736.919C101.395 736.76 101.126 736.531 100.928 736.233C100.729 735.932 100.629 735.568 100.629 735.142C100.629 734.767 100.703 734.463 100.851 734.23C100.999 733.994 101.196 733.81 101.443 733.676C101.69 733.543 101.963 733.443 102.261 733.378C102.563 733.31 102.865 733.256 103.169 733.216C103.567 733.165 103.889 733.126 104.136 733.101C104.386 733.072 104.568 733.026 104.682 732.96C104.798 732.895 104.857 732.781 104.857 732.619V732.585C104.857 732.165 104.741 731.838 104.511 731.605C104.284 731.372 103.939 731.256 103.476 731.256C102.996 731.256 102.619 731.361 102.347 731.571C102.074 731.781 101.882 732.006 101.771 732.244L100.817 731.903C100.987 731.506 101.214 731.196 101.499 730.974C101.786 730.75 102.098 730.594 102.436 730.506C102.777 730.415 103.112 730.369 103.442 730.369C103.652 730.369 103.893 730.395 104.166 730.446C104.442 730.494 104.707 730.595 104.963 730.749C105.222 730.902 105.436 731.134 105.607 731.443C105.777 731.753 105.862 732.168 105.862 732.688V737H104.857V736.114H104.805C104.737 736.256 104.624 736.408 104.464 736.57C104.305 736.732 104.094 736.869 103.83 736.983C103.565 737.097 103.243 737.153 102.862 737.153ZM103.016 736.25C103.413 736.25 103.749 736.172 104.021 736.016C104.297 735.859 104.504 735.658 104.643 735.411C104.786 735.163 104.857 734.903 104.857 734.631V733.71C104.814 733.761 104.72 733.808 104.575 733.851C104.433 733.891 104.268 733.926 104.081 733.957C103.896 733.986 103.716 734.011 103.54 734.034C103.366 734.054 103.226 734.071 103.118 734.085C102.857 734.119 102.612 734.175 102.385 734.251C102.161 734.325 101.979 734.437 101.839 734.588C101.703 734.736 101.635 734.937 101.635 735.193C101.635 735.543 101.764 735.807 102.023 735.986C102.284 736.162 102.615 736.25 103.016 736.25ZM108.703 733.062V737H107.698V730.455H108.669V731.477H108.755C108.908 731.145 109.141 730.878 109.453 730.676C109.766 730.472 110.169 730.369 110.664 730.369C111.107 730.369 111.495 730.46 111.827 730.642C112.159 730.821 112.418 731.094 112.603 731.46C112.787 731.824 112.88 732.284 112.88 732.841V737H111.874V732.909C111.874 732.395 111.74 731.994 111.473 731.707C111.206 731.418 110.84 731.273 110.374 731.273C110.053 731.273 109.766 731.342 109.513 731.482C109.263 731.621 109.066 731.824 108.921 732.091C108.776 732.358 108.703 732.682 108.703 733.062ZM117.376 737.136C116.763 737.136 116.234 736.991 115.791 736.702C115.348 736.412 115.007 736.013 114.768 735.504C114.53 734.996 114.411 734.415 114.411 733.761C114.411 733.097 114.533 732.51 114.777 732.001C115.024 731.49 115.368 731.091 115.808 730.804C116.251 730.514 116.768 730.369 117.359 730.369C117.82 730.369 118.234 730.455 118.604 730.625C118.973 730.795 119.276 731.034 119.511 731.341C119.747 731.648 119.893 732.006 119.95 732.415H118.945C118.868 732.116 118.697 731.852 118.433 731.622C118.172 731.389 117.82 731.273 117.376 731.273C116.984 731.273 116.641 731.375 116.345 731.58C116.053 731.781 115.824 732.067 115.659 732.436C115.497 732.803 115.416 733.233 115.416 733.727C115.416 734.233 115.496 734.673 115.655 735.048C115.817 735.423 116.044 735.714 116.337 735.922C116.632 736.129 116.979 736.233 117.376 736.233C117.638 736.233 117.875 736.188 118.088 736.097C118.301 736.006 118.482 735.875 118.629 735.705C118.777 735.534 118.882 735.33 118.945 735.091H119.95C119.893 735.477 119.753 735.825 119.528 736.135C119.307 736.442 119.013 736.686 118.646 736.868C118.283 737.047 117.859 737.136 117.376 737.136ZM124.165 737.136C123.534 737.136 122.99 736.997 122.533 736.719C122.078 736.438 121.727 736.045 121.48 735.543C121.236 735.037 121.114 734.449 121.114 733.778C121.114 733.108 121.236 732.517 121.48 732.006C121.727 731.491 122.071 731.091 122.511 730.804C122.955 730.514 123.472 730.369 124.062 730.369C124.403 730.369 124.74 730.426 125.072 730.54C125.405 730.653 125.707 730.838 125.98 731.094C126.253 731.347 126.47 731.682 126.632 732.099C126.794 732.517 126.875 733.031 126.875 733.642V734.068H121.83V733.199H125.852C125.852 732.83 125.778 732.5 125.631 732.21C125.486 731.92 125.278 731.692 125.009 731.524C124.741 731.357 124.426 731.273 124.062 731.273C123.662 731.273 123.315 731.372 123.023 731.571C122.733 731.767 122.51 732.023 122.354 732.338C122.197 732.653 122.119 732.991 122.119 733.352V733.932C122.119 734.426 122.205 734.845 122.375 735.189C122.548 735.53 122.788 735.79 123.095 735.969C123.402 736.145 123.759 736.233 124.165 736.233C124.429 736.233 124.668 736.196 124.881 736.122C125.097 736.045 125.283 735.932 125.439 735.781C125.595 735.628 125.716 735.437 125.801 735.21L126.773 735.483C126.67 735.812 126.499 736.102 126.257 736.352C126.016 736.599 125.717 736.793 125.362 736.932C125.007 737.068 124.608 737.136 124.165 737.136Z" fill="black"/>
</g>
<g id="R2">
<rect id="Room2" x="163" y="336" width="144" height="79" fill="#D9D9D9"/>
<path id="R2_2" d="M233.057 380V371.273H236.006C236.688 371.273 237.247 371.389 237.685 371.622C238.122 371.852 238.446 372.169 238.656 372.572C238.866 372.976 238.972 373.435 238.972 373.949C238.972 374.463 238.866 374.919 238.656 375.317C238.446 375.714 238.124 376.027 237.689 376.254C237.254 376.479 236.699 376.591 236.023 376.591H233.636V375.636H235.989C236.455 375.636 236.83 375.568 237.114 375.432C237.401 375.295 237.608 375.102 237.736 374.852C237.866 374.599 237.932 374.298 237.932 373.949C237.932 373.599 237.866 373.294 237.736 373.033C237.605 372.771 237.396 372.57 237.109 372.428C236.822 372.283 236.443 372.21 235.972 372.21H234.114V380H233.057ZM237.165 376.08L239.312 380H238.085L235.972 376.08H237.165ZM240.579 380V379.233L243.46 376.08C243.798 375.71 244.076 375.389 244.295 375.116C244.514 374.841 244.676 374.582 244.781 374.341C244.889 374.097 244.943 373.841 244.943 373.574C244.943 373.267 244.869 373.001 244.721 372.777C244.576 372.553 244.377 372.379 244.125 372.257C243.872 372.135 243.588 372.074 243.272 372.074C242.937 372.074 242.645 372.143 242.395 372.283C242.147 372.419 241.956 372.611 241.819 372.858C241.686 373.105 241.619 373.395 241.619 373.727H240.613C240.613 373.216 240.731 372.767 240.967 372.381C241.203 371.994 241.524 371.693 241.93 371.477C242.339 371.261 242.798 371.153 243.306 371.153C243.818 371.153 244.271 371.261 244.666 371.477C245.061 371.693 245.37 371.984 245.595 372.351C245.819 372.717 245.931 373.125 245.931 373.574C245.931 373.895 245.873 374.209 245.757 374.516C245.643 374.82 245.444 375.159 245.16 375.534C244.879 375.906 244.488 376.361 243.988 376.898L242.028 378.994V379.062H246.085V380H240.579Z" fill="black"/>
</g>
<g id="R3">
<rect id="Room3" x="307" y="336" width="144" height="79" fill="#D9D9D9"/>
<path id="R2_3" d="M377.057 380V371.273H380.006C380.688 371.273 381.247 371.389 381.685 371.622C382.122 371.852 382.446 372.169 382.656 372.572C382.866 372.976 382.972 373.435 382.972 373.949C382.972 374.463 382.866 374.919 382.656 375.317C382.446 375.714 382.124 376.027 381.689 376.254C381.254 376.479 380.699 376.591 380.023 376.591H377.636V375.636H379.989C380.455 375.636 380.83 375.568 381.114 375.432C381.401 375.295 381.608 375.102 381.736 374.852C381.866 374.599 381.932 374.298 381.932 373.949C381.932 373.599 381.866 373.294 381.736 373.033C381.605 372.771 381.396 372.57 381.109 372.428C380.822 372.283 380.443 372.21 379.972 372.21H378.114V380H377.057ZM381.165 376.08L383.312 380H382.085L379.972 376.08H381.165ZM387.528 380.119C386.966 380.119 386.464 380.023 386.024 379.83C385.586 379.636 385.238 379.368 384.98 379.024C384.724 378.678 384.585 378.276 384.562 377.818H385.636C385.659 378.099 385.755 378.342 385.926 378.547C386.096 378.749 386.319 378.905 386.595 379.016C386.87 379.126 387.176 379.182 387.511 379.182C387.886 379.182 388.218 379.116 388.508 378.986C388.798 378.855 389.025 378.673 389.19 378.44C389.355 378.207 389.437 377.938 389.437 377.631C389.437 377.31 389.358 377.027 389.199 376.783C389.039 376.536 388.806 376.342 388.5 376.203C388.193 376.064 387.818 375.994 387.375 375.994H386.676V375.057H387.375C387.721 375.057 388.025 374.994 388.287 374.869C388.551 374.744 388.757 374.568 388.904 374.341C389.055 374.114 389.13 373.847 389.13 373.54C389.13 373.244 389.065 372.987 388.934 372.768C388.804 372.55 388.619 372.379 388.38 372.257C388.145 372.135 387.866 372.074 387.545 372.074C387.244 372.074 386.96 372.129 386.693 372.24C386.429 372.348 386.213 372.506 386.045 372.713C385.877 372.918 385.787 373.165 385.772 373.455H384.75C384.767 372.997 384.904 372.597 385.163 372.253C385.422 371.906 385.76 371.636 386.177 371.443C386.598 371.25 387.059 371.153 387.562 371.153C388.102 371.153 388.565 371.263 388.951 371.482C389.338 371.697 389.635 371.983 389.842 372.338C390.049 372.693 390.153 373.077 390.153 373.489C390.153 373.98 390.024 374.399 389.765 374.746C389.51 375.092 389.162 375.332 388.721 375.466V375.534C389.272 375.625 389.703 375.859 390.012 376.237C390.322 376.612 390.477 377.077 390.477 377.631C390.477 378.105 390.348 378.531 390.089 378.909C389.833 379.284 389.484 379.58 389.041 379.795C388.598 380.011 388.093 380.119 387.528 380.119Z" fill="black"/>
</g>
<g id="R4">
<rect id="Room4" x="838" y="116" width="144" height="79" fill="#D9D9D9"/>
<path id="R4_2" d="M908.057 160V151.273H911.006C911.688 151.273 912.247 151.389 912.685 151.622C913.122 151.852 913.446 152.169 913.656 152.572C913.866 152.976 913.972 153.435 913.972 153.949C913.972 154.463 913.866 154.919 913.656 155.317C913.446 155.714 913.124 156.027 912.689 156.254C912.254 156.479 911.699 156.591 911.023 156.591H908.636V155.636H910.989C911.455 155.636 911.83 155.568 912.114 155.432C912.401 155.295 912.608 155.102 912.736 154.852C912.866 154.599 912.932 154.298 912.932 153.949C912.932 153.599 912.866 153.294 912.736 153.033C912.605 152.771 912.396 152.57 912.109 152.428C911.822 152.283 911.443 152.21 910.972 152.21H909.114V160H908.057ZM912.165 156.08L914.312 160H913.085L910.972 156.08H912.165ZM915.375 158.21V157.341L919.21 151.273H919.841V152.619H919.414L916.517 157.205V157.273H921.681V158.21H915.375ZM919.483 160V157.946V157.541V151.273H920.488V160H919.483Z" fill="black"/>
</g>
<g id="R7">
<rect id="Room7" x="456" y="37" width="144" height="79" fill="#D9D9D9"/>
<path id="R7_2" d="M526.057 81V72.2727H529.006C529.688 72.2727 530.247 72.3892 530.685 72.6222C531.122 72.8523 531.446 73.169 531.656 73.5724C531.866 73.9759 531.972 74.4347 531.972 74.9489C531.972 75.4631 531.866 75.919 531.656 76.3168C531.446 76.7145 531.124 77.027 530.689 77.2543C530.254 77.4787 529.699 77.5909 529.023 77.5909H526.636V76.6364H528.989C529.455 76.6364 529.83 76.5682 530.114 76.4318C530.401 76.2955 530.608 76.1023 530.736 75.8523C530.866 75.5994 530.932 75.2983 530.932 74.9489C530.932 74.5994 530.866 74.294 530.736 74.0327C530.605 73.7713 530.396 73.5696 530.109 73.4276C529.822 73.2827 529.443 73.2102 528.972 73.2102H527.114V81H526.057ZM530.165 77.0795L532.312 81H531.085L528.972 77.0795H530.165ZM533.375 79.2102V78.3409L537.21 72.2727H537.841V73.6193H537.414L534.517 78.2045V78.2727H539.681V79.2102H533.375ZM537.483 81V78.946V78.5412V72.2727H538.488V81H537.483Z" fill="black"/>
</g>
<g id="R8">
<rect id="Room8" x="456" y="37" width="144" height="79" fill="#D9D9D9"/>
<path id="R8_2" d="M526.057 81V72.2727H529.006C529.688 72.2727 530.247 72.3892 530.685 72.6222C531.122 72.8523 531.446 73.169 531.656 73.5724C531.866 73.9759 531.972 74.4347 531.972 74.9489C531.972 75.4631 531.866 75.919 531.656 76.3168C531.446 76.7145 531.124 77.027 530.689 77.2543C530.254 77.4787 529.699 77.5909 529.023 77.5909H526.636V76.6364H528.989C529.455 76.6364 529.83 76.5682 530.114 76.4318C530.401 76.2955 530.608 76.1023 530.736 75.8523C530.866 75.5994 530.932 75.2983 530.932 74.9489C530.932 74.5994 530.866 74.294 530.736 74.0327C530.605 73.7713 530.396 73.5696 530.109 73.4276C529.822 73.2827 529.443 73.2102 528.972 73.2102H527.114V81H526.057ZM530.165 77.0795L532.312 81H531.085L528.972 77.0795H530.165ZM536.375 81.1193C535.789 81.1193 535.272 81.0156 534.824 80.8082C534.377 80.598 534.029 80.3097 533.779 79.9432C533.529 79.5739 533.406 79.1534 533.409 78.6818C533.406 78.3125 533.478 77.9716 533.626 77.6591C533.774 77.3437 533.975 77.081 534.231 76.8707C534.49 76.6577 534.778 76.5227 535.096 76.4659V76.4148C534.679 76.3068 534.346 76.0724 534.099 75.7116C533.852 75.348 533.73 74.9347 533.733 74.4716C533.73 74.0284 533.842 73.6321 534.069 73.2827C534.297 72.9332 534.609 72.6577 535.007 72.456C535.407 72.2543 535.863 72.1534 536.375 72.1534C536.88 72.1534 537.332 72.2543 537.73 72.456C538.127 72.6577 538.44 72.9332 538.667 73.2827C538.897 73.6321 539.014 74.0284 539.017 74.4716C539.014 74.9347 538.887 75.348 538.637 75.7116C538.39 76.0724 538.062 76.3068 537.653 76.4148V76.4659C537.968 76.5227 538.252 76.6577 538.505 76.8707C538.758 77.081 538.96 77.3437 539.11 77.6591C539.261 77.9716 539.338 78.3125 539.341 78.6818C539.338 79.1534 539.21 79.5739 538.957 79.9432C538.707 80.3097 538.359 80.598 537.913 80.8082C537.47 81.0156 536.957 81.1193 536.375 81.1193ZM536.375 80.1818C536.77 80.1818 537.11 80.1179 537.397 79.9901C537.684 79.8622 537.906 79.6818 538.062 79.4489C538.218 79.2159 538.298 78.9432 538.301 78.6307C538.298 78.3011 538.213 78.0099 538.045 77.7571C537.877 77.5043 537.649 77.3054 537.359 77.1605C537.072 77.0156 536.744 76.9432 536.375 76.9432C536.002 76.9432 535.67 77.0156 535.377 77.1605C535.088 77.3054 534.859 77.5043 534.691 77.7571C534.527 78.0099 534.446 78.3011 534.449 78.6307C534.446 78.9432 534.521 79.2159 534.674 79.4489C534.831 79.6818 535.054 79.8622 535.343 79.9901C535.633 80.1179 535.977 80.1818 536.375 80.1818ZM536.375 76.0398C536.687 76.0398 536.964 75.9773 537.206 75.8523C537.45 75.7273 537.642 75.5526 537.781 75.3281C537.92 75.1037 537.991 74.8409 537.994 74.5398C537.991 74.2443 537.922 73.9872 537.785 73.7685C537.649 73.5469 537.46 73.3764 537.218 73.2571C536.977 73.1349 536.696 73.0739 536.375 73.0739C536.048 73.0739 535.762 73.1349 535.518 73.2571C535.274 73.3764 535.085 73.5469 534.951 73.7685C534.818 73.9872 534.752 74.2443 534.755 74.5398C534.752 74.8409 534.819 75.1037 534.956 75.3281C535.095 75.5526 535.287 75.7273 535.531 75.8523C535.775 75.9773 536.056 76.0398 536.375 76.0398Z" fill="black"/>
</g>
<g id="R9">
<rect id="Room9" x="254" y="37" width="144" height="79" fill="#D9D9D9"/>
<path id="R9_2" d="M324.057 81V72.2727H327.006C327.688 72.2727 328.247 72.3892 328.685 72.6222C329.122 72.8523 329.446 73.169 329.656 73.5724C329.866 73.9759 329.972 74.4347 329.972 74.9489C329.972 75.4631 329.866 75.919 329.656 76.3168C329.446 76.7145 329.124 77.027 328.689 77.2543C328.254 77.4787 327.699 77.5909 327.023 77.5909H324.636V76.6364H326.989C327.455 76.6364 327.83 76.5682 328.114 76.4318C328.401 76.2955 328.608 76.1023 328.736 75.8523C328.866 75.5994 328.932 75.2983 328.932 74.9489C328.932 74.5994 328.866 74.294 328.736 74.0327C328.605 73.7713 328.396 73.5696 328.109 73.4276C327.822 73.2827 327.443 73.2102 326.972 73.2102H325.114V81H324.057ZM328.165 77.0795L330.312 81H329.085L326.972 77.0795H328.165ZM334.358 72.1534C334.716 72.1562 335.074 72.2244 335.431 72.358C335.789 72.4915 336.116 72.7131 336.412 73.0227C336.707 73.3295 336.944 73.7486 337.123 74.2798C337.302 74.8111 337.392 75.4773 337.392 76.2784C337.392 77.054 337.318 77.7429 337.17 78.3452C337.025 78.9446 336.815 79.4503 336.539 79.8622C336.267 80.2741 335.934 80.5866 335.542 80.7997C335.153 81.0128 334.713 81.1193 334.221 81.1193C333.733 81.1193 333.297 81.0227 332.913 80.8295C332.532 80.6335 332.22 80.3622 331.975 80.0156C331.734 79.6662 331.579 79.2614 331.511 78.8011H332.551C332.645 79.2017 332.831 79.5327 333.109 79.794C333.39 80.0526 333.761 80.1818 334.221 80.1818C334.895 80.1818 335.426 79.8878 335.815 79.2997C336.207 78.7116 336.403 77.8807 336.403 76.8068H336.335C336.176 77.0455 335.987 77.2514 335.768 77.4247C335.549 77.598 335.306 77.7315 335.039 77.8253C334.772 77.919 334.488 77.9659 334.187 77.9659C333.687 77.9659 333.228 77.8423 332.811 77.5952C332.396 77.3452 332.064 77.0028 331.814 76.5682C331.566 76.1307 331.443 75.6307 331.443 75.0682C331.443 74.5341 331.562 74.0455 331.801 73.6023C332.042 73.1562 332.38 72.8011 332.815 72.5369C333.252 72.2727 333.767 72.1449 334.358 72.1534ZM334.358 73.0909C334 73.0909 333.677 73.1804 333.39 73.3594C333.106 73.5355 332.88 73.7741 332.713 74.0753C332.548 74.3736 332.466 74.7045 332.466 75.0682C332.466 75.4318 332.545 75.7628 332.704 76.0611C332.866 76.3565 333.086 76.5923 333.365 76.7685C333.646 76.9418 333.966 77.0284 334.324 77.0284C334.593 77.0284 334.845 76.9759 335.078 76.8707C335.311 76.7628 335.514 76.6165 335.687 76.4318C335.863 76.2443 336.001 76.0327 336.1 75.7969C336.2 75.5582 336.25 75.3097 336.25 75.0511C336.25 74.7102 336.167 74.3906 336.002 74.0923C335.841 73.794 335.616 73.5526 335.329 73.3679C335.045 73.1832 334.721 73.0909 334.358 73.0909Z" fill="black"/>
</g>
<g id="R10">
<rect id="Room10" x="64" y="37" width="144" height="79" fill="#D9D9D9"/>
<path id="R10_2" d="M134.057 81V72.2727H137.006C137.688 72.2727 138.247 72.3892 138.685 72.6222C139.122 72.8523 139.446 73.169 139.656 73.5724C139.866 73.9759 139.972 74.4347 139.972 74.9489C139.972 75.4631 139.866 75.919 139.656 76.3168C139.446 76.7145 139.124 77.027 138.689 77.2543C138.254 77.4787 137.699 77.5909 137.023 77.5909H134.636V76.6364H136.989C137.455 76.6364 137.83 76.5682 138.114 76.4318C138.401 76.2955 138.608 76.1023 138.736 75.8523C138.866 75.5994 138.932 75.2983 138.932 74.9489C138.932 74.5994 138.866 74.294 138.736 74.0327C138.605 73.7713 138.396 73.5696 138.109 73.4276C137.822 73.2827 137.443 73.2102 136.972 73.2102H135.114V81H134.057ZM138.165 77.0795L140.312 81H139.085L136.972 77.0795H138.165ZM144.647 72.2727V81H143.591V73.3807H143.539L141.409 74.7955V73.7216L143.591 72.2727H144.647ZM150.004 81.1193C149.362 81.1193 148.815 80.9446 148.363 80.5952C147.912 80.2429 147.566 79.733 147.328 79.0653C147.089 78.3949 146.97 77.5852 146.97 76.6364C146.97 75.6932 147.089 74.8878 147.328 74.2202C147.569 73.5497 147.916 73.0384 148.368 72.6861C148.822 72.331 149.368 72.1534 150.004 72.1534C150.64 72.1534 151.184 72.331 151.636 72.6861C152.091 73.0384 152.437 73.5497 152.676 74.2202C152.917 74.8878 153.038 75.6932 153.038 76.6364C153.038 77.5852 152.919 78.3949 152.68 79.0653C152.441 79.733 152.096 80.2429 151.645 80.5952C151.193 80.9446 150.646 81.1193 150.004 81.1193ZM150.004 80.1818C150.64 80.1818 151.135 79.875 151.487 79.2614C151.839 78.6477 152.015 77.7727 152.015 76.6364C152.015 75.8807 151.934 75.2372 151.772 74.706C151.613 74.1747 151.383 73.7699 151.082 73.4915C150.784 73.2131 150.424 73.0739 150.004 73.0739C149.373 73.0739 148.88 73.3849 148.525 74.0071C148.17 74.6264 147.993 75.5028 147.993 76.6364C147.993 77.392 148.072 78.0341 148.231 78.5625C148.39 79.0909 148.619 79.4929 148.917 79.7685C149.218 80.044 149.581 80.1818 150.004 80.1818Z" fill="black"/>
</g>
<g id="R5">
<rect id="Room5" x="838" y="282" width="144" height="79" fill="#D9D9D9"/>
<path id="R5_2" d="M908.057 326V317.273H911.006C911.688 317.273 912.247 317.389 912.685 317.622C913.122 317.852 913.446 318.169 913.656 318.572C913.866 318.976 913.972 319.435 913.972 319.949C913.972 320.463 913.866 320.919 913.656 321.317C913.446 321.714 913.124 322.027 912.689 322.254C912.254 322.479 911.699 322.591 911.023 322.591H908.636V321.636H910.989C911.455 321.636 911.83 321.568 912.114 321.432C912.401 321.295 912.608 321.102 912.736 320.852C912.866 320.599 912.932 320.298 912.932 319.949C912.932 319.599 912.866 319.294 912.736 319.033C912.605 318.771 912.396 318.57 912.109 318.428C911.822 318.283 911.443 318.21 910.972 318.21H909.114V326H908.057ZM912.165 322.08L914.312 326H913.085L910.972 322.08H912.165ZM918.306 326.119C917.806 326.119 917.356 326.02 916.956 325.821C916.555 325.622 916.234 325.349 915.993 325.003C915.751 324.656 915.619 324.261 915.596 323.818H916.619C916.659 324.213 916.838 324.54 917.156 324.798C917.477 325.054 917.86 325.182 918.306 325.182C918.664 325.182 918.983 325.098 919.261 324.93C919.542 324.763 919.762 324.533 919.922 324.24C920.083 323.945 920.164 323.611 920.164 323.239C920.164 322.858 920.081 322.518 919.913 322.22C919.748 321.919 919.521 321.682 919.231 321.509C918.941 321.335 918.61 321.247 918.238 321.244C917.971 321.241 917.697 321.283 917.416 321.368C917.135 321.45 916.903 321.557 916.721 321.688L915.733 321.568L916.261 317.273H920.795V318.21H917.147L916.841 320.784H916.892C917.071 320.642 917.295 320.524 917.565 320.43C917.835 320.337 918.116 320.29 918.409 320.29C918.943 320.29 919.419 320.418 919.836 320.673C920.257 320.926 920.586 321.273 920.825 321.713C921.066 322.153 921.187 322.656 921.187 323.222C921.187 323.778 921.062 324.276 920.812 324.713C920.565 325.148 920.224 325.491 919.789 325.744C919.355 325.994 918.86 326.119 918.306 326.119Z" fill="black"/>
</g>
<g id="R6">
<rect id="Room6" x="838" y="460" width="144" height="79" fill="#D9D9D9"/>
<path id="R6_2" d="M908.057 504V495.273H911.006C911.688 495.273 912.247 495.389 912.685 495.622C913.122 495.852 913.446 496.169 913.656 496.572C913.866 496.976 913.972 497.435 913.972 497.949C913.972 498.463 913.866 498.919 913.656 499.317C913.446 499.714 913.124 500.027 912.689 500.254C912.254 500.479 911.699 500.591 911.023 500.591H908.636V499.636H910.989C911.455 499.636 911.83 499.568 912.114 499.432C912.401 499.295 912.608 499.102 912.736 498.852C912.866 498.599 912.932 498.298 912.932 497.949C912.932 497.599 912.866 497.294 912.736 497.033C912.605 496.771 912.396 496.57 912.109 496.428C911.822 496.283 911.443 496.21 910.972 496.21H909.114V504H908.057ZM912.165 500.08L914.312 504H913.085L910.972 500.08H912.165ZM918.477 504.119C918.119 504.114 917.761 504.045 917.403 503.915C917.045 503.784 916.718 503.564 916.423 503.254C916.127 502.942 915.89 502.52 915.711 501.989C915.532 501.455 915.443 500.784 915.443 499.977C915.443 499.205 915.515 498.52 915.66 497.923C915.805 497.324 916.015 496.82 916.291 496.411C916.566 495.999 916.899 495.686 917.288 495.473C917.68 495.26 918.122 495.153 918.613 495.153C919.102 495.153 919.537 495.251 919.917 495.447C920.301 495.641 920.613 495.911 920.855 496.257C921.096 496.604 921.252 497.003 921.324 497.455H920.284C920.187 497.062 920 496.737 919.721 496.479C919.443 496.22 919.074 496.091 918.613 496.091C917.937 496.091 917.404 496.385 917.015 496.973C916.629 497.561 916.434 498.386 916.431 499.449H916.5C916.659 499.207 916.848 499.001 917.066 498.831C917.288 498.658 917.532 498.524 917.799 498.43C918.066 498.337 918.349 498.29 918.647 498.29C919.147 498.29 919.605 498.415 920.02 498.665C920.434 498.912 920.767 499.254 921.017 499.692C921.267 500.126 921.392 500.625 921.392 501.188C921.392 501.727 921.271 502.222 921.029 502.67C920.788 503.116 920.449 503.472 920.011 503.736C919.576 503.997 919.065 504.125 918.477 504.119ZM918.477 503.182C918.835 503.182 919.156 503.092 919.44 502.913C919.727 502.734 919.953 502.494 920.118 502.193C920.285 501.892 920.369 501.557 920.369 501.188C920.369 500.827 920.288 500.499 920.126 500.203C919.967 499.905 919.747 499.668 919.466 499.491C919.187 499.315 918.869 499.227 918.511 499.227C918.241 499.227 917.99 499.281 917.757 499.389C917.524 499.494 917.319 499.639 917.143 499.824C916.97 500.009 916.833 500.22 916.734 500.459C916.635 500.695 916.585 500.943 916.585 501.205C916.585 501.551 916.666 501.875 916.828 502.176C916.993 502.477 917.217 502.72 917.501 502.905C917.788 503.089 918.113 503.182 918.477 503.182Z" fill="black"/>
</g>
</g>
<g id="Walkable">
<line id="Line 1" x1="103.5" y1="680" x2="103.5" y2="560" stroke="black"/>
<line id="Line 7" x1="103.5" y1="545" x2="103.5" y2="425" stroke="black"/>
<line id="Line 3" x1="247.5" y1="415" x2="247.5" y2="553" stroke="black"/>
<line id="Line 4" x1="384.5" y1="413" x2="384.5" y2="551" stroke="black"/>
<line id="Line 5" x1="739.5" y1="323.006" x2="737.5" y2="163.006" stroke="black"/>
<line id="Line 11" x1="738.5" y1="496.997" x2="739.5" y2="335.997" stroke="black"/>
<line id="Line 6" x1="737.995" y1="163.5" x2="837.995" y2="162.5" stroke="black"/>
<line id="Line 8" x1="112.996" y1="551.5" x2="237.996" y2="550.5" stroke="black"/>
<line id="Line 9" x1="258.996" y1="551.5" x2="383.996" y2="550.5" stroke="black"/>
<line id="Line 10" x1="393.002" y1="550.5" x2="727.001" y2="551.55" stroke="black"/>
<line id="Line 12" x1="749.006" y1="327.5" x2="831.006" y2="328.5" stroke="black"/>
<line id="Line 15" x1="733.997" y1="165.5" x2="539.997" y2="164.515" stroke="black"/>
<line id="Line 16" x1="532.5" y1="157" x2="532.5" y2="116" stroke="black"/>
<line id="Line 18" x1="322.5" y1="160" x2="322.5" y2="122" stroke="black"/>
<line id="Line 20" x1="140.5" y1="158" x2="140.5" y2="116" stroke="black"/>
<line id="Line 17" x1="529" y1="165.5" x2="332" y2="165.5" stroke="black"/>
<line id="Line 19" x1="319.003" y1="164.5" x2="141.003" y2="165.5" stroke="black"/>
<line id="Line 21" x1="739.5" y1="543" x2="739.5" y2="510" stroke="black"/>
<line id="Line 22" x1="746.012" y1="504.5" x2="831.012" y2="506.5" stroke="black"/>
</g>
<g id="intersection">
<ellipse id="Ellipse 4" cx="247" cy="551" rx="7" ry="6" fill="#FC7276"/>
<ellipse id="Room9_2" cx="325" cy="116" rx="7" ry="6" fill="#FC7276"/>
<ellipse id="Room10_2" cx="141" cy="116" rx="7" ry="6" fill="#FC7276"/>
<ellipse id="Room8_2" cx="532" cy="116" rx="7" ry="6" fill="#FC7276"/>
<ellipse id="Room2_2" cx="247" cy="415" rx="7" ry="6" fill="#FC7276"/>
<ellipse id="Room3_2" cx="384" cy="415" rx="7" ry="6" fill="#FC7276"/>
<ellipse id="Ellipse 7" cx="384" cy="551" rx="7" ry="6" fill="#FC7276"/>
<ellipse id="Ellipse 8" cx="738" cy="550" rx="7" ry="6" fill="#FC7276"/>
<ellipse id="Ellipse 15" cx="738" cy="504" rx="7" ry="6" fill="#FC7276"/>
<ellipse id="Ellipse 10" cx="740" cy="329" rx="7" ry="6" fill="#FC7276"/>
<ellipse id="Room6_2" cx="838" cy="504" rx="7" ry="6" fill="#FC7276"/>
<ellipse id="Room4_2" cx="838" cy="163" rx="7" ry="6" fill="#FC7276"/>
<ellipse id="Ellipse 9" cx="740" cy="164" rx="7" ry="6" fill="#FC7276"/>
<ellipse id="Ellipse 1" cx="104" cy="553" rx="7" ry="6" fill="#FC7276"/>
<ellipse id="Room1_2" cx="104" cy="415" rx="7" ry="6" fill="#FC7276"/>
<ellipse id="Entrance_2" cx="104" cy="687" rx="7" ry="6" fill="#FC7276"/>
<ellipse id="Room5_2" cx="838" cy="328" rx="7" ry="6" fill="#FC7276"/>
<ellipse id="Ellipse 12" cx="533" cy="165" rx="7" ry="6" fill="#FC7276"/>
<ellipse id="Ellipse 13" cx="325" cy="165" rx="7" ry="6" fill="#FC7276"/>
<ellipse id="Ellipse 14" cx="141" cy="163" rx="7" ry="6" fill="#FC7276"/>
</g>
</g>
</svg>
