<svg width="1200" height="800" viewBox="0 0 1200 800" fill="none" xmlns="http://www.w3.org/2000/svg">
<g id="Ground Floor">
<rect width="1200" height="800" fill="white"/>
<g id="Spaces">
<g id="E1">
<rect id="Entrance" x="226" y="319" width="219" height="129" fill="#D9D9D9"/>
<path id="Entrance_2" d="M311.057 388V379.273H316.324V380.21H312.114V383.159H316.051V384.097H312.114V387.062H316.392V388H311.057ZM319.098 384.062V388H318.092V381.455H319.064V382.477H319.149C319.303 382.145 319.536 381.878 319.848 381.676C320.161 381.472 320.564 381.369 321.058 381.369C321.501 381.369 321.889 381.46 322.222 381.642C322.554 381.821 322.813 382.094 322.997 382.46C323.182 382.824 323.274 383.284 323.274 383.841V388H322.268V383.909C322.268 383.395 322.135 382.994 321.868 382.707C321.601 382.418 321.234 382.273 320.768 382.273C320.447 382.273 320.161 382.342 319.908 382.482C319.658 382.621 319.46 382.824 319.315 383.091C319.17 383.358 319.098 383.682 319.098 384.062ZM327.958 381.455V382.307H324.566V381.455H327.958ZM325.555 379.886H326.561V386.125C326.561 386.409 326.602 386.622 326.684 386.764C326.77 386.903 326.877 386.997 327.008 387.045C327.142 387.091 327.282 387.114 327.43 387.114C327.541 387.114 327.632 387.108 327.703 387.097C327.774 387.082 327.831 387.071 327.873 387.062L328.078 387.966C328.01 387.991 327.914 388.017 327.792 388.043C327.67 388.071 327.515 388.085 327.328 388.085C327.044 388.085 326.765 388.024 326.493 387.902C326.223 387.78 325.998 387.594 325.819 387.344C325.643 387.094 325.555 386.778 325.555 386.398V379.886ZM329.471 388V381.455H330.443V382.443H330.511C330.63 382.119 330.846 381.857 331.159 381.655C331.471 381.453 331.824 381.352 332.216 381.352C332.289 381.352 332.382 381.354 332.493 381.357C332.603 381.359 332.687 381.364 332.744 381.369V382.392C332.71 382.384 332.632 382.371 332.51 382.354C332.39 382.334 332.264 382.324 332.13 382.324C331.812 382.324 331.528 382.391 331.278 382.524C331.031 382.655 330.835 382.837 330.69 383.07C330.548 383.3 330.477 383.562 330.477 383.858V388H329.471ZM335.862 388.153C335.447 388.153 335.071 388.075 334.733 387.919C334.395 387.76 334.126 387.531 333.928 387.233C333.729 386.932 333.629 386.568 333.629 386.142C333.629 385.767 333.703 385.463 333.851 385.23C333.999 384.994 334.196 384.81 334.443 384.676C334.69 384.543 334.963 384.443 335.261 384.378C335.563 384.31 335.865 384.256 336.169 384.216C336.567 384.165 336.889 384.126 337.136 384.101C337.386 384.072 337.568 384.026 337.682 383.96C337.798 383.895 337.857 383.781 337.857 383.619V383.585C337.857 383.165 337.741 382.838 337.511 382.605C337.284 382.372 336.939 382.256 336.476 382.256C335.996 382.256 335.619 382.361 335.347 382.571C335.074 382.781 334.882 383.006 334.771 383.244L333.817 382.903C333.987 382.506 334.214 382.196 334.499 381.974C334.786 381.75 335.098 381.594 335.436 381.506C335.777 381.415 336.112 381.369 336.442 381.369C336.652 381.369 336.893 381.395 337.166 381.446C337.442 381.494 337.707 381.595 337.963 381.749C338.222 381.902 338.436 382.134 338.607 382.443C338.777 382.753 338.862 383.168 338.862 383.688V388H337.857V387.114H337.805C337.737 387.256 337.624 387.408 337.464 387.57C337.305 387.732 337.094 387.869 336.83 387.983C336.565 388.097 336.243 388.153 335.862 388.153ZM336.016 387.25C336.413 387.25 336.749 387.172 337.021 387.016C337.297 386.859 337.504 386.658 337.643 386.411C337.786 386.163 337.857 385.903 337.857 385.631V384.71C337.814 384.761 337.72 384.808 337.575 384.851C337.433 384.891 337.268 384.926 337.081 384.957C336.896 384.986 336.716 385.011 336.54 385.034C336.366 385.054 336.226 385.071 336.118 385.085C335.857 385.119 335.612 385.175 335.385 385.251C335.161 385.325 334.979 385.437 334.839 385.588C334.703 385.736 334.635 385.937 334.635 386.193C334.635 386.543 334.764 386.807 335.023 386.986C335.284 387.162 335.615 387.25 336.016 387.25ZM341.703 384.062V388H340.698V381.455H341.669V382.477H341.755C341.908 382.145 342.141 381.878 342.453 381.676C342.766 381.472 343.169 381.369 343.664 381.369C344.107 381.369 344.495 381.46 344.827 381.642C345.159 381.821 345.418 382.094 345.603 382.46C345.787 382.824 345.88 383.284 345.88 383.841V388H344.874V383.909C344.874 383.395 344.74 382.994 344.473 382.707C344.206 382.418 343.84 382.273 343.374 382.273C343.053 382.273 342.766 382.342 342.513 382.482C342.263 382.621 342.066 382.824 341.921 383.091C341.776 383.358 341.703 383.682 341.703 384.062ZM350.376 388.136C349.763 388.136 349.234 387.991 348.791 387.702C348.348 387.412 348.007 387.013 347.768 386.504C347.53 385.996 347.411 385.415 347.411 384.761C347.411 384.097 347.533 383.51 347.777 383.001C348.024 382.49 348.368 382.091 348.808 381.804C349.251 381.514 349.768 381.369 350.359 381.369C350.82 381.369 351.234 381.455 351.604 381.625C351.973 381.795 352.276 382.034 352.511 382.341C352.747 382.648 352.893 383.006 352.95 383.415H351.945C351.868 383.116 351.697 382.852 351.433 382.622C351.172 382.389 350.82 382.273 350.376 382.273C349.984 382.273 349.641 382.375 349.345 382.58C349.053 382.781 348.824 383.067 348.659 383.436C348.497 383.803 348.416 384.233 348.416 384.727C348.416 385.233 348.496 385.673 348.655 386.048C348.817 386.423 349.044 386.714 349.337 386.922C349.632 387.129 349.979 387.233 350.376 387.233C350.638 387.233 350.875 387.188 351.088 387.097C351.301 387.006 351.482 386.875 351.629 386.705C351.777 386.534 351.882 386.33 351.945 386.091H352.95C352.893 386.477 352.753 386.825 352.528 387.135C352.307 387.442 352.013 387.686 351.646 387.868C351.283 388.047 350.859 388.136 350.376 388.136ZM357.165 388.136C356.534 388.136 355.99 387.997 355.533 387.719C355.078 387.438 354.727 387.045 354.48 386.543C354.236 386.037 354.114 385.449 354.114 384.778C354.114 384.108 354.236 383.517 354.48 383.006C354.727 382.491 355.071 382.091 355.511 381.804C355.955 381.514 356.472 381.369 357.062 381.369C357.403 381.369 357.74 381.426 358.072 381.54C358.405 381.653 358.707 381.838 358.98 382.094C359.253 382.347 359.47 382.682 359.632 383.099C359.794 383.517 359.875 384.031 359.875 384.642V385.068H354.83V384.199H358.852C358.852 383.83 358.778 383.5 358.631 383.21C358.486 382.92 358.278 382.692 358.009 382.524C357.741 382.357 357.426 382.273 357.062 382.273C356.662 382.273 356.315 382.372 356.023 382.571C355.733 382.767 355.51 383.023 355.354 383.338C355.197 383.653 355.119 383.991 355.119 384.352V384.932C355.119 385.426 355.205 385.845 355.375 386.189C355.548 386.53 355.788 386.79 356.095 386.969C356.402 387.145 356.759 387.233 357.165 387.233C357.429 387.233 357.668 387.196 357.881 387.122C358.097 387.045 358.283 386.932 358.439 386.781C358.595 386.628 358.716 386.437 358.801 386.21L359.773 386.483C359.67 386.812 359.499 387.102 359.257 387.352C359.016 387.599 358.717 387.793 358.362 387.932C358.007 388.068 357.608 388.136 357.165 388.136Z" fill="black"/>
</g>
<g id="R1">
<rect id="Room 1" x="792" y="151" width="182" height="100" fill="#D9D9D9"/>
<path id="Room 1_2" d="M863.057 205V196.273H866.006C866.688 196.273 867.247 196.389 867.685 196.622C868.122 196.852 868.446 197.169 868.656 197.572C868.866 197.976 868.972 198.435 868.972 198.949C868.972 199.463 868.866 199.919 868.656 200.317C868.446 200.714 868.124 201.027 867.689 201.254C867.254 201.479 866.699 201.591 866.023 201.591H863.636V200.636H865.989C866.455 200.636 866.83 200.568 867.114 200.432C867.401 200.295 867.608 200.102 867.736 199.852C867.866 199.599 867.932 199.298 867.932 198.949C867.932 198.599 867.866 198.294 867.736 198.033C867.605 197.771 867.396 197.57 867.109 197.428C866.822 197.283 866.443 197.21 865.972 197.21H864.114V205H863.057ZM867.165 201.08L869.312 205H868.085L865.972 201.08H867.165ZM873.185 205.136C872.594 205.136 872.076 204.996 871.63 204.714C871.186 204.433 870.84 204.04 870.59 203.534C870.343 203.028 870.219 202.437 870.219 201.761C870.219 201.08 870.343 200.484 870.59 199.976C870.84 199.467 871.186 199.072 871.63 198.791C872.076 198.51 872.594 198.369 873.185 198.369C873.776 198.369 874.293 198.51 874.736 198.791C875.182 199.072 875.529 199.467 875.776 199.976C876.026 200.484 876.151 201.08 876.151 201.761C876.151 202.437 876.026 203.028 875.776 203.534C875.529 204.04 875.182 204.433 874.736 204.714C874.293 204.996 873.776 205.136 873.185 205.136ZM873.185 204.233C873.634 204.233 874.003 204.118 874.293 203.888C874.583 203.658 874.797 203.355 874.936 202.98C875.076 202.605 875.145 202.199 875.145 201.761C875.145 201.324 875.076 200.916 874.936 200.538C874.797 200.161 874.583 199.855 874.293 199.622C874.003 199.389 873.634 199.273 873.185 199.273C872.736 199.273 872.367 199.389 872.077 199.622C871.787 199.855 871.573 200.161 871.434 200.538C871.294 200.916 871.225 201.324 871.225 201.761C871.225 202.199 871.294 202.605 871.434 202.98C871.573 203.355 871.787 203.658 872.077 203.888C872.367 204.118 872.736 204.233 873.185 204.233ZM880.345 205.136C879.754 205.136 879.236 204.996 878.79 204.714C878.347 204.433 878 204.04 877.75 203.534C877.503 203.028 877.379 202.437 877.379 201.761C877.379 201.08 877.503 200.484 877.75 199.976C878 199.467 878.347 199.072 878.79 198.791C879.236 198.51 879.754 198.369 880.345 198.369C880.936 198.369 881.453 198.51 881.896 198.791C882.342 199.072 882.689 199.467 882.936 199.976C883.186 200.484 883.311 201.08 883.311 201.761C883.311 202.437 883.186 203.028 882.936 203.534C882.689 204.04 882.342 204.433 881.896 204.714C881.453 204.996 880.936 205.136 880.345 205.136ZM880.345 204.233C880.794 204.233 881.163 204.118 881.453 203.888C881.743 203.658 881.957 203.355 882.097 202.98C882.236 202.605 882.305 202.199 882.305 201.761C882.305 201.324 882.236 200.916 882.097 200.538C881.957 200.161 881.743 199.855 881.453 199.622C881.163 199.389 880.794 199.273 880.345 199.273C879.896 199.273 879.527 199.389 879.237 199.622C878.947 199.855 878.733 200.161 878.594 200.538C878.455 200.916 878.385 201.324 878.385 201.761C878.385 202.199 878.455 202.605 878.594 202.98C878.733 203.355 878.947 203.658 879.237 203.888C879.527 204.118 879.896 204.233 880.345 204.233ZM884.846 205V198.455H885.818V199.477H885.903C886.039 199.128 886.26 198.857 886.564 198.663C886.868 198.467 887.233 198.369 887.659 198.369C888.091 198.369 888.45 198.467 888.737 198.663C889.027 198.857 889.252 199.128 889.414 199.477H889.483C889.65 199.139 889.902 198.871 890.237 198.672C890.572 198.47 890.974 198.369 891.443 198.369C892.028 198.369 892.507 198.553 892.879 198.919C893.251 199.283 893.437 199.849 893.437 200.619V205H892.431V200.619C892.431 200.136 892.299 199.791 892.035 199.584C891.771 199.376 891.46 199.273 891.102 199.273C890.642 199.273 890.285 199.412 890.032 199.69C889.779 199.966 889.653 200.315 889.653 200.739V205H888.63V200.517C888.63 200.145 888.51 199.845 888.268 199.618C888.027 199.388 887.716 199.273 887.335 199.273C887.074 199.273 886.829 199.342 886.602 199.482C886.377 199.621 886.196 199.814 886.056 200.061C885.92 200.305 885.852 200.588 885.852 200.909V205H884.846ZM901.702 196.273V205H900.645V197.381H900.594L898.463 198.795V197.722L900.645 196.273H901.702Z" fill="black"/>
</g>
<g id="R2">
<rect id="Room 2" x="792" y="549" width="182" height="100" fill="#D9D9D9"/>
<path id="Room 2_2" d="M872.057 607V598.273H875.006C875.688 598.273 876.247 598.389 876.685 598.622C877.122 598.852 877.446 599.169 877.656 599.572C877.866 599.976 877.972 600.435 877.972 600.949C877.972 601.463 877.866 601.919 877.656 602.317C877.446 602.714 877.124 603.027 876.689 603.254C876.254 603.479 875.699 603.591 875.023 603.591H872.636V602.636H874.989C875.455 602.636 875.83 602.568 876.114 602.432C876.401 602.295 876.608 602.102 876.736 601.852C876.866 601.599 876.932 601.298 876.932 600.949C876.932 600.599 876.866 600.294 876.736 600.033C876.605 599.771 876.396 599.57 876.109 599.428C875.822 599.283 875.443 599.21 874.972 599.21H873.114V607H872.057ZM876.165 603.08L878.312 607H877.085L874.972 603.08H876.165ZM882.185 607.136C881.594 607.136 881.076 606.996 880.63 606.714C880.186 606.433 879.84 606.04 879.59 605.534C879.343 605.028 879.219 604.437 879.219 603.761C879.219 603.08 879.343 602.484 879.59 601.976C879.84 601.467 880.186 601.072 880.63 600.791C881.076 600.51 881.594 600.369 882.185 600.369C882.776 600.369 883.293 600.51 883.736 600.791C884.182 601.072 884.529 601.467 884.776 601.976C885.026 602.484 885.151 603.08 885.151 603.761C885.151 604.437 885.026 605.028 884.776 605.534C884.529 606.04 884.182 606.433 883.736 606.714C883.293 606.996 882.776 607.136 882.185 607.136ZM882.185 606.233C882.634 606.233 883.003 606.118 883.293 605.888C883.583 605.658 883.797 605.355 883.936 604.98C884.076 604.605 884.145 604.199 884.145 603.761C884.145 603.324 884.076 602.916 883.936 602.538C883.797 602.161 883.583 601.855 883.293 601.622C883.003 601.389 882.634 601.273 882.185 601.273C881.736 601.273 881.367 601.389 881.077 601.622C880.787 601.855 880.573 602.161 880.434 602.538C880.294 602.916 880.225 603.324 880.225 603.761C880.225 604.199 880.294 604.605 880.434 604.98C880.573 605.355 880.787 605.658 881.077 605.888C881.367 606.118 881.736 606.233 882.185 606.233ZM889.345 607.136C888.754 607.136 888.236 606.996 887.79 606.714C887.347 606.433 887 606.04 886.75 605.534C886.503 605.028 886.379 604.437 886.379 603.761C886.379 603.08 886.503 602.484 886.75 601.976C887 601.467 887.347 601.072 887.79 600.791C888.236 600.51 888.754 600.369 889.345 600.369C889.936 600.369 890.453 600.51 890.896 600.791C891.342 601.072 891.689 601.467 891.936 601.976C892.186 602.484 892.311 603.08 892.311 603.761C892.311 604.437 892.186 605.028 891.936 605.534C891.689 606.04 891.342 606.433 890.896 606.714C890.453 606.996 889.936 607.136 889.345 607.136ZM889.345 606.233C889.794 606.233 890.163 606.118 890.453 605.888C890.743 605.658 890.957 605.355 891.097 604.98C891.236 604.605 891.305 604.199 891.305 603.761C891.305 603.324 891.236 602.916 891.097 602.538C890.957 602.161 890.743 601.855 890.453 601.622C890.163 601.389 889.794 601.273 889.345 601.273C888.896 601.273 888.527 601.389 888.237 601.622C887.947 601.855 887.733 602.161 887.594 602.538C887.455 602.916 887.385 603.324 887.385 603.761C887.385 604.199 887.455 604.605 887.594 604.98C887.733 605.355 887.947 605.658 888.237 605.888C888.527 606.118 888.896 606.233 889.345 606.233ZM893.846 607V600.455H894.818V601.477H894.903C895.039 601.128 895.26 600.857 895.564 600.663C895.868 600.467 896.233 600.369 896.659 600.369C897.091 600.369 897.45 600.467 897.737 600.663C898.027 600.857 898.252 601.128 898.414 601.477H898.483C898.65 601.139 898.902 600.871 899.237 600.672C899.572 600.47 899.974 600.369 900.443 600.369C901.028 600.369 901.507 600.553 901.879 600.919C902.251 601.283 902.437 601.849 902.437 602.619V607H901.431V602.619C901.431 602.136 901.299 601.791 901.035 601.584C900.771 601.376 900.46 601.273 900.102 601.273C899.642 601.273 899.285 601.412 899.032 601.69C898.779 601.966 898.653 602.315 898.653 602.739V607H897.63V602.517C897.63 602.145 897.51 601.845 897.268 601.618C897.027 601.388 896.716 601.273 896.335 601.273C896.074 601.273 895.829 601.342 895.602 601.482C895.377 601.621 895.196 601.814 895.056 602.061C894.92 602.305 894.852 602.588 894.852 602.909V607H893.846ZM907.634 607V606.233L910.515 603.08C910.853 602.71 911.131 602.389 911.35 602.116C911.569 601.841 911.73 601.582 911.836 601.341C911.944 601.097 911.998 600.841 911.998 600.574C911.998 600.267 911.924 600.001 911.776 599.777C911.631 599.553 911.432 599.379 911.179 599.257C910.926 599.135 910.642 599.074 910.327 599.074C909.992 599.074 909.699 599.143 909.449 599.283C909.202 599.419 909.01 599.611 908.874 599.858C908.74 600.105 908.674 600.395 908.674 600.727H907.668C907.668 600.216 907.786 599.767 908.022 599.381C908.257 598.994 908.578 598.693 908.985 598.477C909.394 598.261 909.853 598.153 910.361 598.153C910.873 598.153 911.326 598.261 911.721 598.477C912.115 598.693 912.425 598.984 912.65 599.351C912.874 599.717 912.986 600.125 912.986 600.574C912.986 600.895 912.928 601.209 912.811 601.516C912.698 601.82 912.499 602.159 912.215 602.534C911.934 602.906 911.543 603.361 911.043 603.898L909.083 605.994V606.062H913.14V607H907.634Z" fill="black"/>
</g>
</g>
<g id="Walkable">
<line id="Line 1" x1="463.999" y1="384.5" x2="882.999" y2="383.5" stroke="black"/>
<line id="Line 2" x1="881.5" y1="255.992" x2="883.5" y2="383.992" stroke="black"/>
<line id="Line 3" x1="883.5" y1="382" x2="883.5" y2="549" stroke="black"/>
</g>
<g id="Intersection">
<circle id="Entrance_3" cx="452.5" cy="383.5" r="7.5" fill="#FD2222"/>
<circle id="Ellipse 1" cx="882.5" cy="381.5" r="7.5" fill="#FD2222"/>
<circle id="Room 2_3" cx="882.5" cy="541.5" r="7.5" fill="#FD2222"/>
<circle id="Room 1_3" cx="882.5" cy="255.5" r="7.5" fill="#FD2222"/>
</g>
</g>
</svg>
