<svg width="1200" height="800" viewBox="0 0 1200 800" fill="none" xmlns="http://www.w3.org/2000/svg">
<g id="GROUND">
<rect width="1200" height="800" fill="white"/>
<g id="Room">
<g id="Entrance">
<rect id="Entrance_2" x="19" y="687" width="170" height="99" fill="#D9D9D9"/>
<path id="Entrance_3" d="M80.0568 749V740.273H85.3239V741.21H81.1136V744.159H85.0511V745.097H81.1136V748.062H85.392V749H80.0568ZM88.098 745.062V749H87.0923V742.455H88.0639V743.477H88.1491C88.3026 743.145 88.5355 742.878 88.848 742.676C89.1605 742.472 89.5639 742.369 90.0582 742.369C90.5014 742.369 90.8892 742.46 91.2216 742.642C91.554 742.821 91.8125 743.094 91.9972 743.46C92.1818 743.824 92.2741 744.284 92.2741 744.841V749H91.2685V744.909C91.2685 744.395 91.1349 743.994 90.8679 743.707C90.6009 743.418 90.2344 743.273 89.7685 743.273C89.4474 743.273 89.1605 743.342 88.9077 743.482C88.6577 743.621 88.4602 743.824 88.3153 744.091C88.1705 744.358 88.098 744.682 88.098 745.062ZM96.9585 742.455V743.307H93.5664V742.455H96.9585ZM94.555 740.886H95.5607V747.125C95.5607 747.409 95.6019 747.622 95.6843 747.764C95.7695 747.903 95.8775 747.997 96.0082 748.045C96.1417 748.091 96.2823 748.114 96.43 748.114C96.5408 748.114 96.6317 748.108 96.7028 748.097C96.7738 748.082 96.8306 748.071 96.8732 748.062L97.0778 748.966C97.0096 748.991 96.9144 749.017 96.7923 749.043C96.6701 749.071 96.5153 749.085 96.3278 749.085C96.0437 749.085 95.7653 749.024 95.4925 748.902C95.2227 748.78 94.9982 748.594 94.8192 748.344C94.6431 748.094 94.555 747.778 94.555 747.398V740.886ZM98.4712 749V742.455H99.4428V743.443H99.511C99.6303 743.119 99.8462 742.857 100.159 742.655C100.471 742.453 100.824 742.352 101.216 742.352C101.289 742.352 101.382 742.354 101.493 742.357C101.603 742.359 101.687 742.364 101.744 742.369V743.392C101.71 743.384 101.632 743.371 101.51 743.354C101.39 743.334 101.264 743.324 101.13 743.324C100.812 743.324 100.528 743.391 100.278 743.524C100.031 743.655 99.8349 743.837 99.69 744.07C99.5479 744.3 99.4769 744.562 99.4769 744.858V749H98.4712ZM104.862 749.153C104.447 749.153 104.071 749.075 103.733 748.919C103.395 748.76 103.126 748.531 102.928 748.233C102.729 747.932 102.629 747.568 102.629 747.142C102.629 746.767 102.703 746.463 102.851 746.23C102.999 745.994 103.196 745.81 103.443 745.676C103.69 745.543 103.963 745.443 104.261 745.378C104.563 745.31 104.865 745.256 105.169 745.216C105.567 745.165 105.889 745.126 106.136 745.101C106.386 745.072 106.568 745.026 106.682 744.96C106.798 744.895 106.857 744.781 106.857 744.619V744.585C106.857 744.165 106.741 743.838 106.511 743.605C106.284 743.372 105.939 743.256 105.476 743.256C104.996 743.256 104.619 743.361 104.347 743.571C104.074 743.781 103.882 744.006 103.771 744.244L102.817 743.903C102.987 743.506 103.214 743.196 103.499 742.974C103.786 742.75 104.098 742.594 104.436 742.506C104.777 742.415 105.112 742.369 105.442 742.369C105.652 742.369 105.893 742.395 106.166 742.446C106.442 742.494 106.707 742.595 106.963 742.749C107.222 742.902 107.436 743.134 107.607 743.443C107.777 743.753 107.862 744.168 107.862 744.688V749H106.857V748.114H106.805C106.737 748.256 106.624 748.408 106.464 748.57C106.305 748.732 106.094 748.869 105.83 748.983C105.565 749.097 105.243 749.153 104.862 749.153ZM105.016 748.25C105.413 748.25 105.749 748.172 106.021 748.016C106.297 747.859 106.504 747.658 106.643 747.411C106.786 747.163 106.857 746.903 106.857 746.631V745.71C106.814 745.761 106.72 745.808 106.575 745.851C106.433 745.891 106.268 745.926 106.081 745.957C105.896 745.986 105.716 746.011 105.54 746.034C105.366 746.054 105.226 746.071 105.118 746.085C104.857 746.119 104.612 746.175 104.385 746.251C104.161 746.325 103.979 746.437 103.839 746.588C103.703 746.736 103.635 746.937 103.635 747.193C103.635 747.543 103.764 747.807 104.023 747.986C104.284 748.162 104.615 748.25 105.016 748.25ZM110.703 745.062V749H109.698V742.455H110.669V743.477H110.755C110.908 743.145 111.141 742.878 111.453 742.676C111.766 742.472 112.169 742.369 112.664 742.369C113.107 742.369 113.495 742.46 113.827 742.642C114.159 742.821 114.418 743.094 114.603 743.46C114.787 743.824 114.88 744.284 114.88 744.841V749H113.874V744.909C113.874 744.395 113.74 743.994 113.473 743.707C113.206 743.418 112.84 743.273 112.374 743.273C112.053 743.273 111.766 743.342 111.513 743.482C111.263 743.621 111.066 743.824 110.921 744.091C110.776 744.358 110.703 744.682 110.703 745.062ZM119.376 749.136C118.763 749.136 118.234 748.991 117.791 748.702C117.348 748.412 117.007 748.013 116.768 747.504C116.53 746.996 116.411 746.415 116.411 745.761C116.411 745.097 116.533 744.51 116.777 744.001C117.024 743.49 117.368 743.091 117.808 742.804C118.251 742.514 118.768 742.369 119.359 742.369C119.82 742.369 120.234 742.455 120.604 742.625C120.973 742.795 121.276 743.034 121.511 743.341C121.747 743.648 121.893 744.006 121.95 744.415H120.945C120.868 744.116 120.697 743.852 120.433 743.622C120.172 743.389 119.82 743.273 119.376 743.273C118.984 743.273 118.641 743.375 118.345 743.58C118.053 743.781 117.824 744.067 117.659 744.436C117.497 744.803 117.416 745.233 117.416 745.727C117.416 746.233 117.496 746.673 117.655 747.048C117.817 747.423 118.044 747.714 118.337 747.922C118.632 748.129 118.979 748.233 119.376 748.233C119.638 748.233 119.875 748.188 120.088 748.097C120.301 748.006 120.482 747.875 120.629 747.705C120.777 747.534 120.882 747.33 120.945 747.091H121.95C121.893 747.477 121.753 747.825 121.528 748.135C121.307 748.442 121.013 748.686 120.646 748.868C120.283 749.047 119.859 749.136 119.376 749.136ZM126.165 749.136C125.534 749.136 124.99 748.997 124.533 748.719C124.078 748.438 123.727 748.045 123.48 747.543C123.236 747.037 123.114 746.449 123.114 745.778C123.114 745.108 123.236 744.517 123.48 744.006C123.727 743.491 124.071 743.091 124.511 742.804C124.955 742.514 125.472 742.369 126.062 742.369C126.403 742.369 126.74 742.426 127.072 742.54C127.405 742.653 127.707 742.838 127.98 743.094C128.253 743.347 128.47 743.682 128.632 744.099C128.794 744.517 128.875 745.031 128.875 745.642V746.068H123.83V745.199H127.852C127.852 744.83 127.778 744.5 127.631 744.21C127.486 743.92 127.278 743.692 127.009 743.524C126.741 743.357 126.426 743.273 126.062 743.273C125.662 743.273 125.315 743.372 125.023 743.571C124.733 743.767 124.51 744.023 124.354 744.338C124.197 744.653 124.119 744.991 124.119 745.352V745.932C124.119 746.426 124.205 746.845 124.375 747.189C124.548 747.53 124.788 747.79 125.095 747.969C125.402 748.145 125.759 748.233 126.165 748.233C126.429 748.233 126.668 748.196 126.881 748.122C127.097 748.045 127.283 747.932 127.439 747.781C127.595 747.628 127.716 747.437 127.801 747.21L128.773 747.483C128.67 747.812 128.499 748.102 128.257 748.352C128.016 748.599 127.717 748.793 127.362 748.932C127.007 749.068 126.608 749.136 126.165 749.136Z" fill="black"/>
</g>
<g id="R1">
<rect id="Room1" x="19" y="336" width="144" height="79" fill="#D9D9D9"/>
<path id="R1_2" d="M89.0568 380V371.273H92.0057C92.6875 371.273 93.2472 371.389 93.6847 371.622C94.1222 371.852 94.446 372.169 94.6562 372.572C94.8665 372.976 94.9716 373.435 94.9716 373.949C94.9716 374.463 94.8665 374.919 94.6562 375.317C94.446 375.714 94.1236 376.027 93.6889 376.254C93.2543 376.479 92.6989 376.591 92.0227 376.591H89.6364V375.636H91.9886C92.4545 375.636 92.8295 375.568 93.1136 375.432C93.4006 375.295 93.608 375.102 93.7358 374.852C93.8665 374.599 93.9318 374.298 93.9318 373.949C93.9318 373.599 93.8665 373.294 93.7358 373.033C93.6051 372.771 93.3963 372.57 93.1094 372.428C92.8224 372.283 92.4432 372.21 91.9716 372.21H90.1136V380H89.0568ZM93.1648 376.08L95.3125 380H94.0852L91.9716 376.08H93.1648ZM99.6474 371.273V380H98.5906V372.381H98.5394L96.4087 373.795V372.722L98.5906 371.273H99.6474Z" fill="black"/>
</g>
<g id="R2">
<rect id="Room2" x="163" y="336" width="144" height="79" fill="#D9D9D9"/>
<path id="R2_2" d="M233.057 380V371.273H236.006C236.688 371.273 237.247 371.389 237.685 371.622C238.122 371.852 238.446 372.169 238.656 372.572C238.866 372.976 238.972 373.435 238.972 373.949C238.972 374.463 238.866 374.919 238.656 375.317C238.446 375.714 238.124 376.027 237.689 376.254C237.254 376.479 236.699 376.591 236.023 376.591H233.636V375.636H235.989C236.455 375.636 236.83 375.568 237.114 375.432C237.401 375.295 237.608 375.102 237.736 374.852C237.866 374.599 237.932 374.298 237.932 373.949C237.932 373.599 237.866 373.294 237.736 373.033C237.605 372.771 237.396 372.57 237.109 372.428C236.822 372.283 236.443 372.21 235.972 372.21H234.114V380H233.057ZM237.165 376.08L239.312 380H238.085L235.972 376.08H237.165ZM240.579 380V379.233L243.46 376.08C243.798 375.71 244.076 375.389 244.295 375.116C244.514 374.841 244.676 374.582 244.781 374.341C244.889 374.097 244.943 373.841 244.943 373.574C244.943 373.267 244.869 373.001 244.721 372.777C244.576 372.553 244.377 372.379 244.125 372.257C243.872 372.135 243.588 372.074 243.272 372.074C242.937 372.074 242.645 372.143 242.395 372.283C242.147 372.419 241.956 372.611 241.819 372.858C241.686 373.105 241.619 373.395 241.619 373.727H240.613C240.613 373.216 240.731 372.767 240.967 372.381C241.203 371.994 241.524 371.693 241.93 371.477C242.339 371.261 242.798 371.153 243.306 371.153C243.818 371.153 244.271 371.261 244.666 371.477C245.061 371.693 245.37 371.984 245.595 372.351C245.819 372.717 245.931 373.125 245.931 373.574C245.931 373.895 245.873 374.209 245.757 374.516C245.643 374.82 245.444 375.159 245.16 375.534C244.879 375.906 244.488 376.361 243.988 376.898L242.028 378.994V379.062H246.085V380H240.579Z" fill="black"/>
</g>
<g id="R3">
<rect id="Room3" x="307" y="336" width="144" height="79" fill="#D9D9D9"/>
<path id="R2_3" d="M377.057 380V371.273H380.006C380.688 371.273 381.247 371.389 381.685 371.622C382.122 371.852 382.446 372.169 382.656 372.572C382.866 372.976 382.972 373.435 382.972 373.949C382.972 374.463 382.866 374.919 382.656 375.317C382.446 375.714 382.124 376.027 381.689 376.254C381.254 376.479 380.699 376.591 380.023 376.591H377.636V375.636H379.989C380.455 375.636 380.83 375.568 381.114 375.432C381.401 375.295 381.608 375.102 381.736 374.852C381.866 374.599 381.932 374.298 381.932 373.949C381.932 373.599 381.866 373.294 381.736 373.033C381.605 372.771 381.396 372.57 381.109 372.428C380.822 372.283 380.443 372.21 379.972 372.21H378.114V380H377.057ZM381.165 376.08L383.312 380H382.085L379.972 376.08H381.165ZM387.528 380.119C386.966 380.119 386.464 380.023 386.024 379.83C385.586 379.636 385.238 379.368 384.98 379.024C384.724 378.678 384.585 378.276 384.562 377.818H385.636C385.659 378.099 385.755 378.342 385.926 378.547C386.096 378.749 386.319 378.905 386.595 379.016C386.87 379.126 387.176 379.182 387.511 379.182C387.886 379.182 388.218 379.116 388.508 378.986C388.798 378.855 389.025 378.673 389.19 378.44C389.355 378.207 389.437 377.938 389.437 377.631C389.437 377.31 389.358 377.027 389.199 376.783C389.039 376.536 388.806 376.342 388.5 376.203C388.193 376.064 387.818 375.994 387.375 375.994H386.676V375.057H387.375C387.721 375.057 388.025 374.994 388.287 374.869C388.551 374.744 388.757 374.568 388.904 374.341C389.055 374.114 389.13 373.847 389.13 373.54C389.13 373.244 389.065 372.987 388.934 372.768C388.804 372.55 388.619 372.379 388.38 372.257C388.145 372.135 387.866 372.074 387.545 372.074C387.244 372.074 386.96 372.129 386.693 372.24C386.429 372.348 386.213 372.506 386.045 372.713C385.877 372.918 385.787 373.165 385.772 373.455H384.75C384.767 372.997 384.904 372.597 385.163 372.253C385.422 371.906 385.76 371.636 386.177 371.443C386.598 371.25 387.059 371.153 387.562 371.153C388.102 371.153 388.565 371.263 388.951 371.482C389.338 371.697 389.635 371.983 389.842 372.338C390.049 372.693 390.153 373.077 390.153 373.489C390.153 373.98 390.024 374.399 389.765 374.746C389.51 375.092 389.162 375.332 388.721 375.466V375.534C389.272 375.625 389.703 375.859 390.012 376.237C390.322 376.612 390.477 377.077 390.477 377.631C390.477 378.105 390.348 378.531 390.089 378.909C389.833 379.284 389.484 379.58 389.041 379.795C388.598 380.011 388.093 380.119 387.528 380.119Z" fill="black"/>
</g>
<g id="R4">
<rect id="Room4" x="838" y="116" width="144" height="79" fill="#D9D9D9"/>
<path id="R4_2" d="M908.057 160V151.273H911.006C911.688 151.273 912.247 151.389 912.685 151.622C913.122 151.852 913.446 152.169 913.656 152.572C913.866 152.976 913.972 153.435 913.972 153.949C913.972 154.463 913.866 154.919 913.656 155.317C913.446 155.714 913.124 156.027 912.689 156.254C912.254 156.479 911.699 156.591 911.023 156.591H908.636V155.636H910.989C911.455 155.636 911.83 155.568 912.114 155.432C912.401 155.295 912.608 155.102 912.736 154.852C912.866 154.599 912.932 154.298 912.932 153.949C912.932 153.599 912.866 153.294 912.736 153.033C912.605 152.771 912.396 152.57 912.109 152.428C911.822 152.283 911.443 152.21 910.972 152.21H909.114V160H908.057ZM912.165 156.08L914.312 160H913.085L910.972 156.08H912.165ZM915.375 158.21V157.341L919.21 151.273H919.841V152.619H919.414L916.517 157.205V157.273H921.681V158.21H915.375ZM919.483 160V157.946V157.541V151.273H920.488V160H919.483Z" fill="black"/>
</g>
<g id="R7">
<rect id="Room7" x="456" y="37" width="144" height="79" fill="#D9D9D9"/>
<path id="R7_2" d="M526.057 81V72.2727H529.006C529.688 72.2727 530.247 72.3892 530.685 72.6222C531.122 72.8523 531.446 73.169 531.656 73.5724C531.866 73.9759 531.972 74.4347 531.972 74.9489C531.972 75.4631 531.866 75.919 531.656 76.3168C531.446 76.7145 531.124 77.027 530.689 77.2543C530.254 77.4787 529.699 77.5909 529.023 77.5909H526.636V76.6364H528.989C529.455 76.6364 529.83 76.5682 530.114 76.4318C530.401 76.2955 530.608 76.1023 530.736 75.8523C530.866 75.5994 530.932 75.2983 530.932 74.9489C530.932 74.5994 530.866 74.294 530.736 74.0327C530.605 73.7713 530.396 73.5696 530.109 73.4276C529.822 73.2827 529.443 73.2102 528.972 73.2102H527.114V81H526.057ZM530.165 77.0795L532.312 81H531.085L528.972 77.0795H530.165ZM533.375 79.2102V78.3409L537.21 72.2727H537.841V73.6193H537.414L534.517 78.2045V78.2727H539.681V79.2102H533.375ZM537.483 81V78.946V78.5412V72.2727H538.488V81H537.483Z" fill="black"/>
</g>
<g id="R8">
<rect id="Room8" x="456" y="37" width="144" height="79" fill="#D9D9D9"/>
<path id="R8_2" d="M526.057 81V72.2727H529.006C529.688 72.2727 530.247 72.3892 530.685 72.6222C531.122 72.8523 531.446 73.169 531.656 73.5724C531.866 73.9759 531.972 74.4347 531.972 74.9489C531.972 75.4631 531.866 75.919 531.656 76.3168C531.446 76.7145 531.124 77.027 530.689 77.2543C530.254 77.4787 529.699 77.5909 529.023 77.5909H526.636V76.6364H528.989C529.455 76.6364 529.83 76.5682 530.114 76.4318C530.401 76.2955 530.608 76.1023 530.736 75.8523C530.866 75.5994 530.932 75.2983 530.932 74.9489C530.932 74.5994 530.866 74.294 530.736 74.0327C530.605 73.7713 530.396 73.5696 530.109 73.4276C529.822 73.2827 529.443 73.2102 528.972 73.2102H527.114V81H526.057ZM530.165 77.0795L532.312 81H531.085L528.972 77.0795H530.165ZM536.375 81.1193C535.789 81.1193 535.272 81.0156 534.824 80.8082C534.377 80.598 534.029 80.3097 533.779 79.9432C533.529 79.5739 533.406 79.1534 533.409 78.6818C533.406 78.3125 533.478 77.9716 533.626 77.6591C533.774 77.3437 533.975 77.081 534.231 76.8707C534.49 76.6577 534.778 76.5227 535.096 76.4659V76.4148C534.679 76.3068 534.346 76.0724 534.099 75.7116C533.852 75.348 533.73 74.9347 533.733 74.4716C533.73 74.0284 533.842 73.6321 534.069 73.2827C534.297 72.9332 534.609 72.6577 535.007 72.456C535.407 72.2543 535.863 72.1534 536.375 72.1534C536.88 72.1534 537.332 72.2543 537.73 72.456C538.127 72.6577 538.44 72.9332 538.667 73.2827C538.897 73.6321 539.014 74.0284 539.017 74.4716C539.014 74.9347 538.887 75.348 538.637 75.7116C538.39 76.0724 538.062 76.3068 537.653 76.4148V76.4659C537.968 76.5227 538.252 76.6577 538.505 76.8707C538.758 77.081 538.96 77.3437 539.11 77.6591C539.261 77.9716 539.338 78.3125 539.341 78.6818C539.338 79.1534 539.21 79.5739 538.957 79.9432C538.707 80.3097 538.359 80.598 537.913 80.8082C537.47 81.0156 536.957 81.1193 536.375 81.1193ZM536.375 80.1818C536.77 80.1818 537.11 80.1179 537.397 79.9901C537.684 79.8622 537.906 79.6818 538.062 79.4489C538.218 79.2159 538.298 78.9432 538.301 78.6307C538.298 78.3011 538.213 78.0099 538.045 77.7571C537.877 77.5043 537.649 77.3054 537.359 77.1605C537.072 77.0156 536.744 76.9432 536.375 76.9432C536.002 76.9432 535.67 77.0156 535.377 77.1605C535.088 77.3054 534.859 77.5043 534.691 77.7571C534.527 78.0099 534.446 78.3011 534.449 78.6307C534.446 78.9432 534.521 79.2159 534.674 79.4489C534.831 79.6818 535.054 79.8622 535.343 79.9901C535.633 80.1179 535.977 80.1818 536.375 80.1818ZM536.375 76.0398C536.687 76.0398 536.964 75.9773 537.206 75.8523C537.45 75.7273 537.642 75.5526 537.781 75.3281C537.92 75.1037 537.991 74.8409 537.994 74.5398C537.991 74.2443 537.922 73.9872 537.785 73.7685C537.649 73.5469 537.46 73.3764 537.218 73.2571C536.977 73.1349 536.696 73.0739 536.375 73.0739C536.048 73.0739 535.762 73.1349 535.518 73.2571C535.274 73.3764 535.085 73.5469 534.951 73.7685C534.818 73.9872 534.752 74.2443 534.755 74.5398C534.752 74.8409 534.819 75.1037 534.956 75.3281C535.095 75.5526 535.287 75.7273 535.531 75.8523C535.775 75.9773 536.056 76.0398 536.375 76.0398Z" fill="black"/>
</g>
<g id="R9">
<rect id="Room9" x="254" y="37" width="144" height="79" fill="#D9D9D9"/>
<path id="R9_2" d="M324.057 81V72.2727H327.006C327.688 72.2727 328.247 72.3892 328.685 72.6222C329.122 72.8523 329.446 73.169 329.656 73.5724C329.866 73.9759 329.972 74.4347 329.972 74.9489C329.972 75.4631 329.866 75.919 329.656 76.3168C329.446 76.7145 329.124 77.027 328.689 77.2543C328.254 77.4787 327.699 77.5909 327.023 77.5909H324.636V76.6364H326.989C327.455 76.6364 327.83 76.5682 328.114 76.4318C328.401 76.2955 328.608 76.1023 328.736 75.8523C328.866 75.5994 328.932 75.2983 328.932 74.9489C328.932 74.5994 328.866 74.294 328.736 74.0327C328.605 73.7713 328.396 73.5696 328.109 73.4276C327.822 73.2827 327.443 73.2102 326.972 73.2102H325.114V81H324.057ZM328.165 77.0795L330.312 81H329.085L326.972 77.0795H328.165ZM334.358 72.1534C334.716 72.1562 335.074 72.2244 335.431 72.358C335.789 72.4915 336.116 72.7131 336.412 73.0227C336.707 73.3295 336.944 73.7486 337.123 74.2798C337.302 74.8111 337.392 75.4773 337.392 76.2784C337.392 77.054 337.318 77.7429 337.17 78.3452C337.025 78.9446 336.815 79.4503 336.539 79.8622C336.267 80.2741 335.934 80.5866 335.542 80.7997C335.153 81.0128 334.713 81.1193 334.221 81.1193C333.733 81.1193 333.297 81.0227 332.913 80.8295C332.532 80.6335 332.22 80.3622 331.975 80.0156C331.734 79.6662 331.579 79.2614 331.511 78.8011H332.551C332.645 79.2017 332.831 79.5327 333.109 79.794C333.39 80.0526 333.761 80.1818 334.221 80.1818C334.895 80.1818 335.426 79.8878 335.815 79.2997C336.207 78.7116 336.403 77.8807 336.403 76.8068H336.335C336.176 77.0455 335.987 77.2514 335.768 77.4247C335.549 77.598 335.306 77.7315 335.039 77.8253C334.772 77.919 334.488 77.9659 334.187 77.9659C333.687 77.9659 333.228 77.8423 332.811 77.5952C332.396 77.3452 332.064 77.0028 331.814 76.5682C331.566 76.1307 331.443 75.6307 331.443 75.0682C331.443 74.5341 331.562 74.0455 331.801 73.6023C332.042 73.1562 332.38 72.8011 332.815 72.5369C333.252 72.2727 333.767 72.1449 334.358 72.1534ZM334.358 73.0909C334 73.0909 333.677 73.1804 333.39 73.3594C333.106 73.5355 332.88 73.7741 332.713 74.0753C332.548 74.3736 332.466 74.7045 332.466 75.0682C332.466 75.4318 332.545 75.7628 332.704 76.0611C332.866 76.3565 333.086 76.5923 333.365 76.7685C333.646 76.9418 333.966 77.0284 334.324 77.0284C334.593 77.0284 334.845 76.9759 335.078 76.8707C335.311 76.7628 335.514 76.6165 335.687 76.4318C335.863 76.2443 336.001 76.0327 336.1 75.7969C336.2 75.5582 336.25 75.3097 336.25 75.0511C336.25 74.7102 336.167 74.3906 336.002 74.0923C335.841 73.794 335.616 73.5526 335.329 73.3679C335.045 73.1832 334.721 73.0909 334.358 73.0909Z" fill="black"/>
</g>
<g id="R10">
<rect id="Room10" x="64" y="37" width="144" height="79" fill="#D9D9D9"/>
<path id="R10_2" d="M134.057 81V72.2727H137.006C137.688 72.2727 138.247 72.3892 138.685 72.6222C139.122 72.8523 139.446 73.169 139.656 73.5724C139.866 73.9759 139.972 74.4347 139.972 74.9489C139.972 75.4631 139.866 75.919 139.656 76.3168C139.446 76.7145 139.124 77.027 138.689 77.2543C138.254 77.4787 137.699 77.5909 137.023 77.5909H134.636V76.6364H136.989C137.455 76.6364 137.83 76.5682 138.114 76.4318C138.401 76.2955 138.608 76.1023 138.736 75.8523C138.866 75.5994 138.932 75.2983 138.932 74.9489C138.932 74.5994 138.866 74.294 138.736 74.0327C138.605 73.7713 138.396 73.5696 138.109 73.4276C137.822 73.2827 137.443 73.2102 136.972 73.2102H135.114V81H134.057ZM138.165 77.0795L140.312 81H139.085L136.972 77.0795H138.165ZM144.647 72.2727V81H143.591V73.3807H143.539L141.409 74.7955V73.7216L143.591 72.2727H144.647ZM150.004 81.1193C149.362 81.1193 148.815 80.9446 148.363 80.5952C147.912 80.2429 147.566 79.733 147.328 79.0653C147.089 78.3949 146.97 77.5852 146.97 76.6364C146.97 75.6932 147.089 74.8878 147.328 74.2202C147.569 73.5497 147.916 73.0384 148.368 72.6861C148.822 72.331 149.368 72.1534 150.004 72.1534C150.64 72.1534 151.184 72.331 151.636 72.6861C152.091 73.0384 152.437 73.5497 152.676 74.2202C152.917 74.8878 153.038 75.6932 153.038 76.6364C153.038 77.5852 152.919 78.3949 152.68 79.0653C152.441 79.733 152.096 80.2429 151.645 80.5952C151.193 80.9446 150.646 81.1193 150.004 81.1193ZM150.004 80.1818C150.64 80.1818 151.135 79.875 151.487 79.2614C151.839 78.6477 152.015 77.7727 152.015 76.6364C152.015 75.8807 151.934 75.2372 151.772 74.706C151.613 74.1747 151.383 73.7699 151.082 73.4915C150.784 73.2131 150.424 73.0739 150.004 73.0739C149.373 73.0739 148.88 73.3849 148.525 74.0071C148.17 74.6264 147.993 75.5028 147.993 76.6364C147.993 77.392 148.072 78.0341 148.231 78.5625C148.39 79.0909 148.619 79.4929 148.917 79.7685C149.218 80.044 149.581 80.1818 150.004 80.1818Z" fill="black"/>
</g>
<g id="R5">
<rect id="Room5" x="838" y="282" width="144" height="79" fill="#D9D9D9"/>
<path id="R5_2" d="M908.057 326V317.273H911.006C911.688 317.273 912.247 317.389 912.685 317.622C913.122 317.852 913.446 318.169 913.656 318.572C913.866 318.976 913.972 319.435 913.972 319.949C913.972 320.463 913.866 320.919 913.656 321.317C913.446 321.714 913.124 322.027 912.689 322.254C912.254 322.479 911.699 322.591 911.023 322.591H908.636V321.636H910.989C911.455 321.636 911.83 321.568 912.114 321.432C912.401 321.295 912.608 321.102 912.736 320.852C912.866 320.599 912.932 320.298 912.932 319.949C912.932 319.599 912.866 319.294 912.736 319.033C912.605 318.771 912.396 318.57 912.109 318.428C911.822 318.283 911.443 318.21 910.972 318.21H909.114V326H908.057ZM912.165 322.08L914.312 326H913.085L910.972 322.08H912.165ZM918.306 326.119C917.806 326.119 917.356 326.02 916.956 325.821C916.555 325.622 916.234 325.349 915.993 325.003C915.751 324.656 915.619 324.261 915.596 323.818H916.619C916.659 324.213 916.838 324.54 917.156 324.798C917.477 325.054 917.86 325.182 918.306 325.182C918.664 325.182 918.983 325.098 919.261 324.93C919.542 324.763 919.762 324.533 919.922 324.24C920.083 323.945 920.164 323.611 920.164 323.239C920.164 322.858 920.081 322.518 919.913 322.22C919.748 321.919 919.521 321.682 919.231 321.509C918.941 321.335 918.61 321.247 918.238 321.244C917.971 321.241 917.697 321.283 917.416 321.368C917.135 321.45 916.903 321.557 916.721 321.688L915.733 321.568L916.261 317.273H920.795V318.21H917.147L916.841 320.784H916.892C917.071 320.642 917.295 320.524 917.565 320.43C917.835 320.337 918.116 320.29 918.409 320.29C918.943 320.29 919.419 320.418 919.836 320.673C920.257 320.926 920.586 321.273 920.825 321.713C921.066 322.153 921.187 322.656 921.187 323.222C921.187 323.778 921.062 324.276 920.812 324.713C920.565 325.148 920.224 325.491 919.789 325.744C919.355 325.994 918.86 326.119 918.306 326.119Z" fill="black"/>
</g>
<g id="R6">
<rect id="Room6" x="838" y="460" width="144" height="79" fill="#D9D9D9"/>
<path id="R6_2" d="M908.057 504V495.273H911.006C911.688 495.273 912.247 495.389 912.685 495.622C913.122 495.852 913.446 496.169 913.656 496.572C913.866 496.976 913.972 497.435 913.972 497.949C913.972 498.463 913.866 498.919 913.656 499.317C913.446 499.714 913.124 500.027 912.689 500.254C912.254 500.479 911.699 500.591 911.023 500.591H908.636V499.636H910.989C911.455 499.636 911.83 499.568 912.114 499.432C912.401 499.295 912.608 499.102 912.736 498.852C912.866 498.599 912.932 498.298 912.932 497.949C912.932 497.599 912.866 497.294 912.736 497.033C912.605 496.771 912.396 496.57 912.109 496.428C911.822 496.283 911.443 496.21 910.972 496.21H909.114V504H908.057ZM912.165 500.08L914.312 504H913.085L910.972 500.08H912.165ZM918.477 504.119C918.119 504.114 917.761 504.045 917.403 503.915C917.045 503.784 916.718 503.564 916.423 503.254C916.127 502.942 915.89 502.52 915.711 501.989C915.532 501.455 915.443 500.784 915.443 499.977C915.443 499.205 915.515 498.52 915.66 497.923C915.805 497.324 916.015 496.82 916.291 496.411C916.566 495.999 916.899 495.686 917.288 495.473C917.68 495.26 918.122 495.153 918.613 495.153C919.102 495.153 919.537 495.251 919.917 495.447C920.301 495.641 920.613 495.911 920.855 496.257C921.096 496.604 921.252 497.003 921.324 497.455H920.284C920.187 497.062 920 496.737 919.721 496.479C919.443 496.22 919.074 496.091 918.613 496.091C917.937 496.091 917.404 496.385 917.015 496.973C916.629 497.561 916.434 498.386 916.431 499.449H916.5C916.659 499.207 916.848 499.001 917.066 498.831C917.288 498.658 917.532 498.524 917.799 498.43C918.066 498.337 918.349 498.29 918.647 498.29C919.147 498.29 919.605 498.415 920.02 498.665C920.434 498.912 920.767 499.254 921.017 499.692C921.267 500.126 921.392 500.625 921.392 501.188C921.392 501.727 921.271 502.222 921.029 502.67C920.788 503.116 920.449 503.472 920.011 503.736C919.576 503.997 919.065 504.125 918.477 504.119ZM918.477 503.182C918.835 503.182 919.156 503.092 919.44 502.913C919.727 502.734 919.953 502.494 920.118 502.193C920.285 501.892 920.369 501.557 920.369 501.188C920.369 500.827 920.288 500.499 920.126 500.203C919.967 499.905 919.747 499.668 919.466 499.491C919.187 499.315 918.869 499.227 918.511 499.227C918.241 499.227 917.99 499.281 917.757 499.389C917.524 499.494 917.319 499.639 917.143 499.824C916.97 500.009 916.833 500.22 916.734 500.459C916.635 500.695 916.585 500.943 916.585 501.205C916.585 501.551 916.666 501.875 916.828 502.176C916.993 502.477 917.217 502.72 917.501 502.905C917.788 503.089 918.113 503.182 918.477 503.182Z" fill="black"/>
</g>
</g>
<g id="Walkable">
<line id="Line 1" x1="103.5" y1="680" x2="103.5" y2="560" stroke="black"/>
<line id="Line 7" x1="103.5" y1="545" x2="103.5" y2="425" stroke="black"/>
<line id="Line 3" x1="247.5" y1="415" x2="247.5" y2="553" stroke="black"/>
<line id="Line 4" x1="384.5" y1="413" x2="384.5" y2="551" stroke="black"/>
<line id="Line 5" x1="739.5" y1="323.006" x2="737.5" y2="163.006" stroke="black"/>
<line id="Line 11" x1="738.5" y1="496.997" x2="739.5" y2="335.997" stroke="black"/>
<line id="Line 6" x1="737.995" y1="163.5" x2="837.995" y2="162.5" stroke="black"/>
<line id="Line 8" x1="112.996" y1="551.5" x2="237.996" y2="550.5" stroke="black"/>
<line id="Line 9" x1="258.996" y1="551.5" x2="383.996" y2="550.5" stroke="black"/>
<line id="Line 10" x1="393.002" y1="550.5" x2="727.001" y2="551.55" stroke="black"/>
<line id="Line 12" x1="749.006" y1="327.5" x2="831.006" y2="328.5" stroke="black"/>
<line id="Line 15" x1="733.997" y1="165.5" x2="539.997" y2="164.515" stroke="black"/>
<line id="Line 16" x1="532.5" y1="157" x2="532.5" y2="116" stroke="black"/>
<line id="Line 18" x1="322.5" y1="160" x2="322.5" y2="122" stroke="black"/>
<line id="Line 20" x1="140.5" y1="158" x2="140.5" y2="116" stroke="black"/>
<line id="Line 17" x1="529" y1="165.5" x2="332" y2="165.5" stroke="black"/>
<line id="Line 19" x1="319.003" y1="164.5" x2="141.003" y2="165.5" stroke="black"/>
<line id="Line 21" x1="739.5" y1="543" x2="739.5" y2="510" stroke="black"/>
<line id="Line 22" x1="746.012" y1="504.5" x2="831.012" y2="506.5" stroke="black"/>
</g>
<g id="intersection">
<ellipse id="Ellipse 4" cx="247" cy="551" rx="7" ry="6" fill="#FC7276"/>
<ellipse id="Room9_2" cx="325" cy="116" rx="7" ry="6" fill="#FC7276"/>
<ellipse id="Room10_2" cx="141" cy="116" rx="7" ry="6" fill="#FC7276"/>
<ellipse id="Room8_2" cx="532" cy="116" rx="7" ry="6" fill="#FC7276"/>
<ellipse id="Room2_2" cx="247" cy="415" rx="7" ry="6" fill="#FC7276"/>
<ellipse id="Room3_2" cx="384" cy="415" rx="7" ry="6" fill="#FC7276"/>
<ellipse id="Ellipse 7" cx="384" cy="551" rx="7" ry="6" fill="#FC7276"/>
<ellipse id="Ellipse 8" cx="738" cy="550" rx="7" ry="6" fill="#FC7276"/>
<ellipse id="Ellipse 15" cx="738" cy="504" rx="7" ry="6" fill="#FC7276"/>
<ellipse id="Ellipse 10" cx="740" cy="329" rx="7" ry="6" fill="#FC7276"/>
<ellipse id="Room6_2" cx="838" cy="504" rx="7" ry="6" fill="#FC7276"/>
<ellipse id="Room4_2" cx="838" cy="163" rx="7" ry="6" fill="#FC7276"/>
<ellipse id="Ellipse 9" cx="740" cy="164" rx="7" ry="6" fill="#FC7276"/>
<ellipse id="Ellipse 1" cx="104" cy="553" rx="7" ry="6" fill="#FC7276"/>
<ellipse id="Room1_2" cx="104" cy="415" rx="7" ry="6" fill="#FC7276"/>
<ellipse id="Entrance_4" cx="104" cy="687" rx="7" ry="6" fill="#FC7276"/>
<ellipse id="Room5_2" cx="838" cy="328" rx="7" ry="6" fill="#FC7276"/>
<ellipse id="Ellipse 12" cx="533" cy="165" rx="7" ry="6" fill="#FC7276"/>
<ellipse id="Ellipse 13" cx="325" cy="165" rx="7" ry="6" fill="#FC7276"/>
<ellipse id="Ellipse 14" cx="141" cy="163" rx="7" ry="6" fill="#FC7276"/>
</g>
</g>
</svg>
